<svg width="187" height="179" viewBox="0 0 187 179" fill="none" xmlns="http://www.w3.org/2000/svg">
<g opacity="0.15">
<path d="M99.1216 0.642046C95.6 1.17729 82.5218 2.50775 76.6184 2.92065C73.2429 3.16533 65.3959 3.21121 63.2187 3.0124C62.1081 2.90535 61.8597 2.82888 61.1729 2.35481C60.1208 1.60547 59.4633 1.42197 58.2212 1.49843C56.7746 1.60548 55.6932 2.1713 54.4804 3.44059C53.2968 4.69458 52.8584 5.61214 52.7561 6.98848C52.6831 8.16601 52.9023 11.041 53.3114 13.8548C53.7498 16.8981 53.9251 19.299 53.8228 20.553C53.7498 21.3023 53.4575 22.5869 53.0192 24.0244C52.6246 25.2784 51.9671 27.4806 51.5579 28.9181C50.2282 33.5058 49.103 36.075 47.4956 38.1701C46.0928 40.0205 43.8279 41.6874 41.8406 42.345C40.4086 42.819 39.298 42.9261 34.7535 43.0637C31.6995 43.1402 29.7268 43.2778 28.8793 43.4307C26.9358 43.7978 24.1302 44.8224 21.9237 45.9693C17.4815 48.2785 14.6467 50.71 11.4027 55.0378C10.7013 55.9707 9.21086 57.9281 8.0857 59.3962C4.63714 63.8922 4.08187 64.6569 3.57043 65.7732C2.66446 67.6848 2.57678 68.2353 2.53294 72.6549C2.50372 76.8604 2.38682 77.9767 1.49545 82.3657C0.414129 87.6417 0.136492 89.4768 0.0342042 92.153C-0.0388583 93.9269 -0.0096333 94.4316 0.268004 95.7467C0.428742 96.5878 0.633317 97.5971 0.691767 97.9947C0.779442 98.5759 0.969405 98.897 1.62697 99.6463C2.89826 101.069 4.88556 104.892 5.30932 106.712C5.36777 106.941 5.67463 107.446 5.98149 107.813C6.7998 108.776 7.07743 110.076 7.35507 114.067C7.57426 117.325 7.77883 118.609 8.30488 120.108C9.26931 122.815 11.4466 125.95 13.5946 127.708C14.6613 128.58 16.4733 129.62 16.9409 129.62C17.1016 129.62 17.2623 129.834 17.3793 130.186C17.6131 130.935 17.993 131.577 19.3958 133.504C21.1054 135.859 21.3539 136.716 21.6023 141.319C21.6899 142.909 21.7922 144.362 21.8507 144.515C22.026 145.142 26.0737 150.265 28.7186 153.216C30.3113 154.99 30.5743 155.143 32.4447 155.266C33.716 155.357 33.7306 155.357 34.5636 156.107C35.0312 156.52 36.0979 157.315 36.9162 157.881C42.8342 161.887 43.9594 162.805 43.9594 163.615C43.9594 164.227 44.2663 164.915 44.9384 165.802C45.7129 166.811 46.0198 167.438 46.1367 168.264L46.2243 168.952L47.2472 169.289C48.2993 169.656 49.4537 170.176 53.5306 172.179C57.0376 173.892 58.8203 174.427 61.056 174.427C62.5903 174.427 63.1164 174.274 64.227 173.525C65.4106 172.73 65.659 172.669 66.3312 172.99L66.901 173.25L67.3102 172.852C67.6755 172.485 67.8362 172.439 68.6692 172.439C70.6565 172.439 71.8985 173.127 73.4913 175.131C75.5224 177.684 76.0777 178.067 78.3719 178.587C80.0523 178.954 83.7639 179.091 88.0161 178.938L91.2309 178.831L92.6921 177.333C94.4748 175.513 95.1324 175.207 97.3827 175.085C99.8376 174.947 102.643 175.544 104.894 176.69C105.493 176.996 106.048 177.226 106.121 177.195C106.209 177.18 108.181 177.103 110.505 177.027C115.049 176.874 115.955 176.767 117.738 176.186C119.199 175.696 120.266 174.947 121.99 173.204C123.612 171.552 124.46 170.94 125.863 170.42C127.777 169.686 129.077 169.457 131.196 169.472C132.964 169.472 133.286 169.518 134.309 169.885L135.463 170.298L137.085 169.319C139.335 167.958 141.732 166.781 143.982 165.924C146.364 165.037 147.124 164.625 147.957 163.829C148.819 163.004 148.994 162.606 149.228 160.939C149.345 160.159 149.491 159.379 149.549 159.211C149.812 158.431 150.791 157.345 152.355 156.045C153.29 155.266 154.81 153.889 155.716 152.972C157.659 151.014 158.565 150.479 159.661 150.632C161.824 150.953 161.415 151.106 163.782 149.118C168.838 144.851 170.489 142.756 171.38 139.407C171.702 138.199 171.79 135.951 171.6 134.299C171.512 133.581 171.541 133.412 171.877 132.892C172.082 132.556 172.725 131.226 173.295 129.926C174.376 127.464 175.282 125.873 176.027 125.139C176.261 124.91 177.138 124.359 177.971 123.916C179.651 123.044 179.563 123.136 181.127 120.291C183.553 115.856 184.678 112.202 184.678 108.73C184.678 106.88 184.473 106.023 183.538 104.096L182.705 102.353V100.809C182.72 98.8205 182.954 98.0406 184.824 93.9881C186.417 90.5319 186.841 89.2168 186.972 87.244C187.089 85.363 186.84 84.0173 186.212 83.2068C185.365 82.1363 184.868 80.7753 184.254 77.9308C183.626 74.9182 183.48 74.49 182.676 73.236C182.354 72.7467 181.142 70.3151 179.973 67.8377C177.109 61.7972 174.42 57.1482 170.971 52.2852C170.095 51.0465 169.773 50.6947 169.422 50.6183C168.765 50.4806 167.581 49.7619 166.149 48.6149C164.542 47.3304 163.767 46.9633 162.028 46.6575C160.1 46.321 159.486 46.0458 158.478 45.0823C157.937 44.5624 157.162 44.0271 156.417 43.6601C155.292 43.1096 154.547 42.8649 150.28 41.6109L148.41 41.0604L147.504 40.1123C146.189 38.7206 145.136 38.1701 140.928 36.6255C137.976 35.5551 137.1 35.1422 135.931 34.3164L135.025 33.6894L134.937 32.7259C134.805 31.3802 134.25 29.4686 133.286 27.0218C131.123 21.5317 130.699 20.186 130.465 18.0144C130.305 16.5922 130.509 14.8183 130.918 13.9007C131.211 13.2737 131.342 13.1514 133.11 12.0197C133.666 11.668 133.899 11.3775 134.279 10.5517C134.718 9.61881 134.776 9.34353 134.82 7.9672L134.878 6.40735L133.476 5.99445C132.716 5.76506 130.612 5.06161 128.829 4.43462C122.604 2.23248 120.514 1.62077 117.46 1.07023C115.721 0.749087 112.127 0.687916 108.401 0.917305C106.165 1.05494 106.121 1.03965 105.01 0.642046C103.593 0.13739 102.351 0.13739 99.1216 0.642046ZM117.592 2.9971C119.754 3.45587 121.391 4.037 125.863 5.9027C128.04 6.80496 130.349 7.73781 131.021 7.9672L132.234 8.3801L131.532 9.16002C129.238 11.7292 128.04 14.803 128.157 17.7851C128.201 19.0696 128.244 19.2378 129.194 21.3941C130.305 23.9327 130.363 24.1468 131.284 28.5357C132.204 32.9859 132.745 34.6069 133.797 36.1209C134.162 36.6408 134.382 36.7784 135.156 37.0078C136.588 37.436 139.598 38.4301 140.986 38.9653C142.418 39.5005 144.932 40.6169 144.932 40.7239C144.932 40.7545 144.83 40.9992 144.698 41.2439C144.581 41.5039 144.493 41.7333 144.523 41.7638C144.552 41.7944 145.195 41.9779 145.984 42.192C146.758 42.4214 148.307 42.9414 149.418 43.3849C152.808 44.7 155.467 45.6329 156.432 45.8317C157.206 45.9999 157.352 46.0764 157.352 46.3363C157.352 46.5198 157.557 46.8716 157.791 47.1468C158.112 47.5292 158.405 47.6668 159.091 47.8044C161.166 48.202 162.92 49.1043 166.237 51.5205C167.464 52.4075 168.604 53.1874 168.75 53.2333C168.911 53.2792 169.364 53.952 169.788 54.732C170.211 55.5119 172.14 58.6163 174.084 61.6595C178.044 67.8224 179.432 70.4833 180.338 73.6489C180.864 75.484 181.317 77.885 181.317 78.8637V79.4295L179.68 78.6649C169.832 74.0924 162.657 69.1835 147.051 56.353C144.479 54.2426 140.928 51.3676 139.16 49.976C136.047 47.5292 135.624 47.0857 136.004 46.6881C136.34 46.3363 136.106 46.1528 134.572 45.5258C133.709 45.1741 132.701 44.6694 132.35 44.4095L131.708 43.9201L132.336 43.7672C134.703 43.2319 139.627 45.8776 146.744 51.5052C149.842 53.952 152.355 55.7872 153.67 56.5365C153.948 56.7047 154.123 56.9494 154.182 57.2705C154.24 57.5764 154.532 57.9893 154.971 58.4022C155.351 58.7539 156.023 59.4268 156.476 59.9009C156.914 60.3596 157.615 60.9408 158.01 61.1854C159.34 61.9807 161.181 63.2652 164.001 65.2992C168.195 68.3271 169.642 69.2752 171.98 70.4986C173.865 71.4927 177.313 72.8537 177.474 72.6702C177.503 72.6396 177.313 72.349 177.05 72.0279C176.539 71.4162 175.194 70.6669 174.303 70.5139C173.879 70.4375 173.602 70.2387 173.061 69.5811C172.184 68.5106 171.103 67.7613 170.007 67.4707C169.452 67.3178 168.882 67.0119 168.4 66.6143C166.894 65.3603 163.051 62.3324 160.421 60.3444C153.802 55.2978 149.9 51.9487 147.387 49.089C147.065 48.722 146.715 48.4161 146.612 48.4161C146.247 48.4161 143.529 46.8869 141.717 45.6635C139.291 44.0119 137.246 42.9873 135.638 42.5744C134.455 42.2685 134.279 42.1767 133.68 41.5345C132.716 40.4793 131.708 39.7605 128.887 38.1089C125.439 36.075 123.992 34.8057 123.188 33.0929C123.042 32.7412 122.502 32.206 121.756 31.6249C118.659 29.2239 116.759 26.67 111.688 18.0603C108.956 13.4114 106.545 10.1846 105.829 10.1846C105.215 10.1846 104.441 9.75644 103.651 8.97651C102.819 8.15071 102.161 7.93661 101.065 8.12013C99.8376 8.31893 99.0339 8.70125 97.412 9.84819C95.3954 11.2551 94.621 11.5916 93.3351 11.5916C92.1514 11.5916 91.6546 11.3774 90.1641 10.2152C88.776 9.14472 87.6654 8.54832 86.6133 8.34952C85.4735 8.12013 84.816 8.30363 83.6031 9.17531C83.004 9.6035 82.1857 10.154 81.7912 10.414C81.1921 10.7963 80.8852 11.1786 80.0231 12.6314C79.3801 13.6866 78.5764 14.7877 78.0065 15.3841C77.3928 16.0111 76.9398 16.6381 76.7791 17.0663C75.7124 19.926 74.3388 21.5929 70.0427 25.1714C67.3979 27.3735 66.2435 28.4593 65.396 29.5298C64.943 30.0956 64.3146 30.6614 63.7301 31.0131C61.7867 32.1907 59.5948 34.0258 56.6577 36.8855C51.631 41.8097 50.8419 42.4214 46.6627 44.6694C43.7694 46.214 41.8406 47.468 41.0953 48.2785L40.6716 48.7526L41.2561 48.6455C42.4397 48.4314 43.6233 48.0644 44.8362 47.5444C47.2911 46.4893 49.0446 45.327 53.8228 41.5345C55.591 40.1275 57.5344 38.6442 58.1335 38.216C58.7326 37.7878 60.2231 36.4879 61.4213 35.3409C66.4042 30.5697 69.6482 28.0311 72.9945 26.2571C73.9443 25.7678 74.1927 25.5537 74.4849 25.0031C75.5663 22.9386 77.2613 20.4001 78.7664 18.5497C79.2924 17.8921 79.9646 16.7757 80.5783 15.5217C82.2588 12.0809 83.6908 10.8422 86.2626 10.674L87.4755 10.5975L88.3668 11.3774C90.0911 12.8914 91.3332 13.3961 93.2766 13.4114C95.0886 13.4267 95.5562 13.2431 97.7334 11.7139C98.9609 10.8575 99.7061 10.4905 100.247 10.4905C100.627 10.4905 100.495 10.9187 99.8084 11.9892C99.5308 12.4174 99.3408 12.8302 99.3846 12.8761C99.5746 13.0749 100.364 12.5856 100.744 12.035C100.963 11.7292 101.167 11.4539 101.182 11.4233C101.27 11.3163 101.679 11.7445 101.679 11.9586C101.679 12.0656 101.401 12.4785 101.065 12.8914L100.466 13.6255L101.255 13.7478C101.693 13.809 102.468 13.809 102.979 13.7631C104.002 13.656 103.944 13.5796 103.637 14.6195C103.52 14.9865 103.608 14.9865 104.514 14.7112C105.288 14.4666 105.566 14.5124 105.785 14.9559C105.989 15.3535 105.712 15.69 105.186 15.69C104.324 15.69 104.601 16.6381 105.624 17.1733C106.311 17.5404 107.217 17.6321 107.685 17.3721C108.05 17.158 108.05 17.4027 107.67 17.7545C107.348 18.0603 107.29 18.5191 107.538 18.6873C107.626 18.7332 107.948 18.6567 108.254 18.5191C109.365 17.9991 109.584 18.6567 108.605 19.6049C108.079 20.1248 107.962 20.6448 108.342 20.7977C108.591 20.9047 109.277 20.5683 109.555 20.2166C109.789 19.926 110.3 19.8954 110.3 20.1554C110.3 20.2624 110.052 20.4918 109.745 20.6601C109.321 20.9047 109.219 21.0577 109.248 21.3482C109.292 21.8223 109.307 21.8376 110.081 21.9141C110.826 22.0058 110.943 22.2811 110.373 22.6634C109.643 23.1528 110.081 23.688 110.87 23.2751C111.44 22.954 112.185 22.954 112.302 23.2751C112.346 23.4127 112.214 23.7033 111.922 24.0091C111.177 24.8196 111.352 25.0949 112.624 25.0949C113.617 25.0949 113.866 25.3855 113.398 26.0125C113.077 26.4407 112.974 27.0677 113.193 27.2206C113.267 27.2665 113.632 27.19 114.026 27.0677C114.845 26.823 115.341 26.8994 115.195 27.2818C114.786 28.3981 115.137 28.9945 116.204 28.9945C116.803 28.9945 116.861 29.0251 116.949 29.4686C117.007 29.7286 117.577 30.7532 118.22 31.7472C119.126 33.1541 119.404 33.7047 119.462 34.2399C119.535 34.821 119.608 34.9433 120.061 35.2033C120.339 35.3562 120.748 35.6621 120.982 35.8915C121.347 36.2585 121.376 36.3503 121.303 37.1914C121.172 38.6595 121.406 39.1947 122.808 40.8004C123.671 41.7638 124.401 42.819 125.103 44.0577C125.658 45.067 126.579 46.7034 127.134 47.6821C128.858 50.7712 130.261 52.4075 135.58 57.5152C138.152 59.9926 140.387 62.3171 141.79 63.9381C144.245 66.8131 145.56 68.0518 146.919 68.7859C147.781 69.2599 147.884 69.367 148.337 70.3151L148.804 71.355H149.579C150.353 71.355 150.353 71.355 150.616 72.0126C150.762 72.3643 150.938 72.8843 150.996 73.1596C151.098 73.6489 151.098 73.6489 152.004 73.6489C153.378 73.6489 153.582 74.0159 152.75 74.9182C152.472 75.2241 152.238 75.5299 152.238 75.6217C152.238 75.8663 152.72 75.9428 153.261 75.7899C154.094 75.5452 154.868 75.5911 154.868 75.8969C154.868 76.0346 154.941 76.3863 155.044 76.6616C155.204 77.1356 155.263 77.1662 155.95 77.1662C156.622 77.1662 156.71 77.2121 157.338 77.9308C157.849 78.512 158.156 78.7261 158.565 78.8025C159.004 78.8637 159.106 78.9402 159.033 79.139C158.741 79.873 158.638 80.2553 158.726 80.3318C158.887 80.5 159.661 80.393 160.143 80.133C160.626 79.8883 160.626 79.8883 160.962 80.3165C161.415 80.9129 161.386 81.1423 160.786 81.6469C160.509 81.8763 160.275 82.1363 160.275 82.2281C160.275 82.3351 160.801 82.3657 161.736 82.3351C162.54 82.3045 163.197 82.3045 163.197 82.3351C163.197 82.3657 163.022 82.6257 162.803 82.9162C162.481 83.375 162.452 83.4821 162.628 83.6044C163.051 83.895 163.548 83.9255 164.308 83.7114C165.492 83.3597 165.769 83.8491 164.878 84.7208C164.6 85.0113 164.366 85.3478 164.366 85.4854C164.366 85.6995 164.469 85.7301 165.068 85.6536C165.696 85.5619 165.813 85.6077 166.485 86.0971C167.041 86.5253 167.362 86.6476 167.83 86.6476H168.429L168.37 87.2135C168.268 88.0851 168.414 88.2075 169.232 87.9169C169.817 87.7181 170.022 87.7028 170.577 87.871C171.351 88.1004 172.272 89.0639 172.535 89.9049L172.725 90.4708H173.66C174.668 90.4708 174.756 90.5625 174.42 91.3119C174.332 91.526 174.303 91.7401 174.347 91.8012C174.508 91.9695 175.282 91.8777 175.72 91.6483C175.94 91.526 176.305 91.3883 176.539 91.3272C176.933 91.2354 176.933 91.2354 176.933 91.9542V92.6882H178.438C179.768 92.6882 180.016 92.7341 180.659 93.0858L181.39 93.4834L181.346 94.5386C181.332 95.1197 181.142 96.4349 180.952 97.4748C180.455 99.9981 180.382 100.931 180.572 102.001C180.659 102.506 180.703 102.95 180.659 102.98C180.528 103.118 178.716 102.215 177.635 101.481C177.05 101.069 175.72 99.9981 174.668 99.1111C172.403 97.1384 171.38 96.4043 170.095 95.7773C169.349 95.4256 168.736 94.9362 167.508 93.6975C166.631 92.7953 164.293 90.6696 162.321 88.9415C158.419 85.5313 155.394 82.4727 154.138 80.6835C153.699 80.0412 152.443 78.6649 151.288 77.5638C142.681 69.2599 135.974 62.0877 131.138 55.986C125.731 49.1808 121.011 41.6874 117.65 34.6069C117.051 33.3529 116.54 32.3589 116.51 32.3895C116.408 32.4965 116.876 34.6681 117.256 35.8762C117.782 37.5125 118.878 39.8676 121.084 43.9966C124.767 50.9394 126.754 53.9673 130.071 57.6987C130.904 58.6469 131.751 59.7479 131.971 60.1761C132.497 61.1549 147.577 77.0286 150.353 79.506C151.449 80.4847 152.501 81.5399 152.691 81.861C154.269 84.5984 156.929 87.2899 162.321 91.6177C164.878 93.6669 167.099 95.6244 168.224 96.8325C168.648 97.2913 169.101 97.6583 169.247 97.6583C169.379 97.6583 169.934 97.903 170.489 98.1935C171.03 98.4841 171.556 98.7288 171.658 98.7288C171.76 98.7288 172.199 99.0958 172.623 99.5546C173.046 99.9981 173.952 100.717 174.624 101.145C176.159 102.108 177.152 103.026 177.532 103.791C177.737 104.219 177.912 104.387 178.161 104.387C178.701 104.387 180.236 105.274 180.747 105.886C182.691 108.195 182.501 112.92 180.265 117.401C179.476 119.007 178.38 120.444 177.971 120.444C177.605 120.444 177.269 120.001 177.152 119.374C177.079 118.946 176.875 118.701 176.159 118.15C173.017 115.749 168.56 111.299 162.102 104.081C160.173 101.94 157.367 98.897 155.862 97.3372C154.342 95.7773 153.115 94.4316 153.115 94.3551C153.115 94.034 151.727 92 150.645 90.7766C148.95 88.8345 148 87.6111 146.378 85.3478C144.946 83.3444 143.514 81.5858 140.753 78.4661C137.582 74.857 135.974 72.5784 134.732 69.8716C134.119 68.5259 133.87 68.1742 132.979 67.3025C131.561 65.9262 130.305 64.244 127.704 60.2067C126.476 58.3104 125.088 56.2459 124.606 55.6189C123.963 54.7626 123.451 53.8144 122.706 52.0863C122.151 50.7865 120.149 46.474 118.264 42.5132C115.517 36.7632 114.83 35.2033 114.83 34.714C114.83 34.0258 114.538 33.5058 114.099 33.3835C113.836 33.307 113.807 33.3835 113.807 34.0564C113.807 34.8516 114.231 36.3808 114.64 37.0843C114.772 37.2984 115.078 37.696 115.298 37.956C115.634 38.3383 115.824 38.8582 116.218 40.4793C117.694 46.6116 119.375 50.2054 125.526 60.3597C126.929 62.6688 128.478 65.2992 128.99 66.232C129.969 68.0518 130.436 68.6024 130.991 68.6024C131.298 68.6024 131.342 68.6635 131.342 69.1529C131.342 69.5811 131.444 69.7952 131.81 70.101C133.359 71.4774 133.593 71.7679 134.309 73.3125C135.054 74.9029 135.814 75.8816 136.413 76.0346C136.676 76.111 136.72 76.2028 136.647 76.5698C136.471 77.5027 136.939 78.0838 137.845 78.0838C138.166 78.0838 138.21 78.1602 138.225 78.6955C138.239 79.0319 138.254 79.3836 138.269 79.4754C138.269 79.5519 138.707 79.9953 139.233 80.4235C140.417 81.4329 141.176 82.4727 141.498 83.5279L141.746 84.3537H142.433H143.134L143.12 84.996C143.105 85.623 143.134 85.6536 144.04 86.2959C145.195 87.0758 145.312 87.2593 145.005 87.8557C144.567 88.7733 144.756 89.0944 145.75 89.0944C146.218 89.0944 146.276 89.1556 146.539 89.7673C146.846 90.5167 147.27 90.8378 147.796 90.7308C148.234 90.6543 148.234 90.7002 147.781 91.266C147.577 91.5107 147.445 91.7706 147.489 91.8471C147.518 91.9083 147.913 92.153 148.366 92.3671C149.228 92.8105 149.506 93.3152 149.184 93.8504C149.096 94.0034 149.023 94.1563 149.023 94.1716C149.023 94.2022 149.52 94.1869 150.134 94.1716C151.171 94.1257 151.244 94.141 151.142 94.401C151.069 94.5539 151.011 94.9515 151.011 95.2879C150.996 95.8997 150.996 95.8996 152.15 96.5419C153.626 97.383 153.948 97.6889 154.065 98.4841C154.196 99.2487 154.328 99.4322 155.029 99.7993C155.394 99.9981 155.716 100.365 156.023 100.946C156.403 101.65 156.607 101.848 157.177 102.108C158.288 102.583 158.302 102.598 158.258 103.301C158.215 103.867 158.258 103.944 158.682 104.219C158.945 104.387 159.354 104.571 159.574 104.616C159.997 104.723 160.07 104.831 159.851 105.09C159.661 105.305 159.544 105.977 159.661 106.176C159.72 106.283 160.187 106.375 160.713 106.406C161.809 106.452 161.955 106.681 161.429 107.43C160.903 108.18 161.122 108.424 162.233 108.333C163.738 108.195 164.001 108.593 163.11 109.617C162.438 110.412 162.569 110.55 164.103 110.657C164.805 110.703 165.316 110.81 165.345 110.917C165.375 111.009 165.199 111.33 164.951 111.636C164.089 112.645 164.571 113.134 166.047 112.767C167.508 112.385 168.297 112.844 167.581 113.639C167.406 113.838 167.289 114.113 167.318 114.281C167.362 114.511 167.508 114.557 168.385 114.557C169.379 114.557 169.408 114.572 169.452 114.97C169.481 115.199 169.393 115.581 169.276 115.841C169.145 116.086 169.042 116.438 169.042 116.621C169.042 117.065 169.788 117.034 170.474 116.545C171.103 116.086 171.264 116.071 171.556 116.422C171.79 116.728 171.76 116.927 171.249 118.043C170.986 118.624 170.957 118.823 171.088 119.007C171.395 119.374 171.673 119.251 172.345 118.502C172.842 117.921 173.017 117.814 173.163 117.967C173.251 118.059 173.455 118.15 173.602 118.15C173.938 118.15 173.923 118.288 173.572 118.762C173.192 119.267 173.207 119.634 173.616 119.848C173.792 119.955 174.171 120.245 174.464 120.505C174.741 120.765 175.107 121.056 175.267 121.148C175.53 121.301 175.516 121.347 175.121 122.402C174.581 123.793 173.602 125.399 172.403 126.852C171.541 127.907 171.439 128.106 171.132 129.345C170.957 130.094 170.635 130.981 170.401 131.333C170.021 131.929 169.174 132.678 168.882 132.678C168.809 132.678 167.815 131.348 166.661 129.727C164.293 126.408 163.563 125.506 162.189 124.206C161.386 123.457 161.049 122.968 160.231 121.377C158.828 118.686 157.762 117.049 156.476 115.627C155.73 114.817 155.058 113.838 154.445 112.722C153.202 110.473 151.537 107.935 148.483 103.684L145.955 100.151V99.3252C145.94 98.5147 145.925 98.4688 144.479 96.5878C142.755 94.3245 141.863 92.9482 139.16 88.3298C136.851 84.3996 134.075 79.9648 132.453 77.625C131.532 76.2945 131.342 75.9122 131.342 75.4382C131.342 74.6735 131.298 74.5971 127.017 67.1343C120.865 56.3989 117.943 50.8476 118.103 50.2054C118.249 49.5784 117.899 47.9115 117.387 46.8104C117.124 46.214 116.452 45.0823 115.911 44.2871C115.356 43.4919 114.64 42.2685 114.289 41.565C113.749 40.4946 113.661 40.1581 113.661 39.3935C113.661 38.583 113.559 38.2771 112.784 36.6867C112.01 35.081 109.949 31.9001 109.686 31.9001C109.526 31.9001 109.394 32.8024 109.496 33.307C109.555 33.567 109.803 34.2399 110.037 34.7904C110.271 35.341 111.031 37.2831 111.718 39.0876C113.193 43.0026 113.632 43.9201 114.991 46.0764C116.306 48.1562 116.584 48.829 116.584 49.8995C116.584 51.704 118.702 56.1083 124.182 65.6203C127.704 71.7679 129.282 74.6888 129.72 75.9581C130.042 76.8451 130.275 77.2733 132.146 80.3777C132.774 81.4328 133.593 82.8704 133.943 83.5891C134.63 84.9501 143.412 99.0958 148.57 107.14C155.935 118.64 161.722 126.791 167.362 133.642L169.218 135.905L169.13 136.7C168.736 139.82 167.347 142.404 164.79 144.76C162.876 146.549 161.473 147.665 161.196 147.665C160.801 147.665 160.348 147.099 160.027 146.212C159.866 145.784 159.004 144.423 158.098 143.169C155.19 139.117 152.779 135.217 148.512 127.708C142.871 117.753 141.761 115.841 140.168 113.211C138.722 110.856 138.502 110.412 138.502 109.847C138.502 108.7 138.093 107.277 137.567 106.62C135.828 104.372 134.367 101.68 130.553 93.6058C128.917 90.1496 127.105 86.5253 126.535 85.5466C125.833 84.3232 125.351 83.268 125.059 82.2892C124.46 80.3777 123.846 78.8331 121.625 73.8018C119.112 68.113 118.322 66.1555 116.613 61.3231C115.809 59.0598 114.494 55.4813 113.69 53.3862C110.519 45.067 110.3 44.3942 109.789 40.9992C109.526 39.2253 108.912 37.7419 108.24 37.2372L107.801 36.9161L107.875 37.4208C107.933 37.7113 108.094 38.8277 108.269 39.9287C108.766 43.2778 109.643 47.2692 110.578 50.4042C111.352 53.0039 114.889 63.25 116.321 66.9966C117.446 69.9787 119.258 73.8171 120.368 75.5911L121.245 77.0133L120.997 77.7015C120.719 78.4967 120.821 78.7872 121.493 79.1543C121.727 79.2766 121.946 79.3989 121.976 79.4142C121.99 79.4295 121.844 79.6895 121.625 79.98L121.23 80.5306L121.61 80.6835C122.049 80.8517 122.282 81.3717 122.282 82.1516C122.282 82.7327 122.706 83.2833 123.159 83.2833C123.32 83.2833 123.451 83.375 123.451 83.4821C123.451 83.6044 123.32 83.8185 123.159 83.9714C122.998 84.1243 122.867 84.4149 122.867 84.629C122.867 84.996 122.896 84.996 123.525 84.9196C124.153 84.8278 124.182 84.8278 124.416 85.3783L124.679 85.9289L124.124 86.3877C123.612 86.8158 123.598 86.8464 123.831 87.1217C124.007 87.3358 124.284 87.4123 124.767 87.4123C125.249 87.4123 125.57 87.504 125.848 87.7334C126.389 88.1769 126.301 88.6357 125.585 89.018C124.869 89.4156 124.635 89.7673 124.854 90.1191C125.03 90.3943 125.351 90.4249 126.389 90.2261C126.856 90.1496 126.929 90.1802 127.002 90.4861C127.134 90.9907 126.929 91.2507 126.228 91.526C125.483 91.8165 125.395 91.9847 125.746 92.4282C126.009 92.7494 126.023 92.7494 126.783 92.52C127.207 92.3824 127.601 92.3212 127.645 92.3671C127.689 92.4129 127.616 92.627 127.484 92.8258C127.192 93.2999 127.178 93.8963 127.47 94.141C127.587 94.2481 127.952 94.3245 128.274 94.3245C128.8 94.3092 128.858 94.3551 128.858 94.6915C128.858 95.0433 128.405 95.6703 128.157 95.6703C127.937 95.6703 127.382 96.2973 127.47 96.4349C127.514 96.5114 128.113 96.756 128.785 96.9701C129.866 97.3219 130.042 97.4289 130.129 97.7653C130.202 98.1018 130.129 98.2547 129.764 98.5759C129.223 99.0346 129.194 99.2028 129.559 99.524C129.969 99.9063 130.407 99.9828 130.67 99.7228C130.904 99.4628 131.196 99.524 131.196 99.8451C131.196 99.9369 131.021 100.197 130.816 100.426C130.319 100.977 130.436 101.329 131.123 101.344C132.38 101.39 132.54 101.757 131.693 102.735C131.284 103.225 131.211 103.378 131.357 103.561C131.576 103.837 132.029 103.837 132.803 103.546C133.14 103.424 133.446 103.317 133.461 103.317C133.49 103.317 133.534 103.469 133.578 103.638C133.636 103.882 133.549 104.096 133.227 104.402C132.803 104.815 132.657 105.503 132.95 105.687C133.023 105.733 133.286 105.672 133.519 105.534C134.162 105.198 134.455 105.243 134.747 105.779L135.01 106.268L134.411 106.834C134.002 107.231 133.856 107.476 133.914 107.66C134.031 107.981 134.557 108.21 135.127 108.21C135.609 108.21 135.945 108.562 135.814 108.898C135.77 109.036 135.492 109.25 135.2 109.372C134.294 109.77 134.849 110.504 136.077 110.504H136.632L136.53 111.513C136.413 112.691 136.486 112.798 137.436 112.798C138.049 112.798 138.049 112.813 137.976 113.257C137.845 113.945 138.005 114.373 138.722 115.26C139.087 115.704 139.379 116.193 139.379 116.361C139.379 116.514 139.174 116.866 138.926 117.126C138.517 117.554 138.488 117.615 138.722 117.783C138.911 117.936 139.087 117.936 139.569 117.753C140.256 117.508 140.636 117.585 140.767 117.997C140.884 118.395 140.767 118.579 140.168 118.839C139.847 118.976 139.671 119.16 139.671 119.343C139.671 119.695 139.876 119.802 140.972 120.047C141.41 120.138 141.79 120.291 141.819 120.383C141.849 120.46 141.644 120.658 141.352 120.796C140.972 120.995 140.84 121.148 140.84 121.438C140.84 121.866 140.913 121.882 142.17 121.836C142.828 121.805 143.003 121.836 143.091 122.065C143.237 122.463 143.076 122.83 142.652 123.029C142.345 123.166 142.287 123.289 142.331 123.702L142.375 124.191L143.295 124.16C144.157 124.114 144.201 124.13 144.201 124.466C144.201 124.665 144.04 124.986 143.836 125.185C143.631 125.384 143.471 125.628 143.471 125.736C143.471 125.965 144.347 126.255 145.063 126.255C145.692 126.255 146.101 126.622 146.101 127.188C146.101 127.54 145.999 127.678 145.604 127.846C145.341 127.968 145.063 128.136 145.005 128.243C144.83 128.549 145.312 128.886 146.13 129.023C147.474 129.253 147.664 130.079 146.51 130.644C145.765 131.011 145.604 131.394 146.042 131.776C146.232 131.944 146.437 131.914 147.284 131.608C148.22 131.271 148.307 131.256 148.526 131.486C148.848 131.822 148.702 132.158 148.117 132.418C147.518 132.678 147.241 133.03 147.358 133.351C147.46 133.626 147.65 133.657 149.213 133.611L150.338 133.565V134.039C150.338 134.422 150.163 134.712 149.608 135.339C148.79 136.242 148.57 136.914 148.95 137.312C149.228 137.603 149.506 137.511 150.251 136.853C150.718 136.44 151.171 136.44 151.42 136.838C151.639 137.205 151.405 137.572 150.777 137.893C150.178 138.199 149.915 138.566 150.002 138.964C150.119 139.407 150.631 139.468 151.361 139.117C152.15 138.734 152.574 138.719 152.823 139.025C153.1 139.377 152.881 139.958 152.311 140.325C151.741 140.692 151.449 141.15 151.566 141.487C151.668 141.762 152.633 141.762 153.115 141.472C153.524 141.227 154.401 141.181 154.708 141.38C155.058 141.609 154.766 141.992 153.933 142.374C153.1 142.756 152.808 143.215 153.115 143.613C153.349 143.903 153.787 143.903 154.576 143.613C154.912 143.49 155.292 143.383 155.394 143.383C155.76 143.383 155.599 143.827 155.088 144.24C154.678 144.561 154.576 144.744 154.576 145.172C154.576 145.799 154.839 145.937 155.438 145.616C155.672 145.478 156.081 145.371 156.33 145.371C156.958 145.371 156.929 145.922 156.257 146.595C155.745 147.115 155.584 147.65 155.935 147.68C156.169 147.711 156.154 147.711 156.885 147.436C158.171 146.962 157.966 147.359 155.979 149.271C154.941 150.28 152.823 152.391 151.288 153.981C148.205 157.162 148.41 157.055 147.416 156.03C146.758 155.357 146.378 154.577 145.575 152.329C145.195 151.228 143.909 148.338 142.725 145.906C140.124 140.539 139.525 139.071 138.429 135.507C137.494 132.403 136.997 131.073 134.089 123.809C131.518 117.355 129.91 113.501 128.58 110.596C128.011 109.342 127.338 107.629 127.09 106.773C126.067 103.271 125.146 100.656 122.721 94.2939C121.742 91.7248 120.427 88.1769 119.784 86.4029C119.155 84.629 118.366 82.4575 118.03 81.5858C117.022 78.9402 116.452 77.0592 115.911 74.49C115.195 71.0492 115.005 70.3763 113.208 64.7792C112.331 62.0418 111.323 58.6163 110.972 57.1635C110.476 55.1602 110.081 53.9826 109.336 52.2699C108.459 50.2512 108.254 49.5631 107.29 45.5411C106.106 40.571 105.463 38.3842 104.616 36.5797C104.017 35.2798 103.988 35.2798 103.798 36.6561C103.622 38.0783 104.09 40.0052 105.332 43.0025C106.486 45.7552 106.793 46.7951 106.954 48.5691C107.246 51.9028 107.378 52.6828 108.094 55.0684C108.488 56.4142 109.35 59.4115 110.008 61.7207C110.665 64.0299 111.571 67.0272 112.01 68.373C115.283 78.3437 116.496 82.3657 117.665 87.0758C118.191 89.2168 118.512 90.119 119.608 92.6117C124.942 104.647 127.017 109.984 130.612 120.827C132.701 127.127 134.878 132.388 135.814 133.351C136.281 133.856 136.457 134.208 136.661 135.049C137.479 138.275 139.043 142.175 142.185 148.889C144.333 153.461 146.247 157.942 146.758 159.578C147.065 160.572 146.978 160.817 145.852 161.887C144.917 162.774 143.222 163.707 140.27 164.93C137.918 165.924 136.793 166.475 136.135 166.964C135.726 167.255 135.726 167.255 135.288 166.934C134.747 166.536 134.44 165.924 133.782 163.952C133.505 163.111 132.599 160.603 131.781 158.37C127.733 147.375 126.038 141.839 124.898 135.813C124.577 134.039 124.036 132.678 123.671 132.678C123.554 132.678 123.451 132.632 123.451 132.587C123.451 132.311 121.201 121.943 120.836 120.521C120.602 119.588 120.105 117.661 119.74 116.239C118.922 113.104 118.936 113.134 117.212 108.761C115.531 104.509 115.02 102.919 114.231 99.4017C113.895 97.8877 113.267 95.1044 112.843 93.1929C112.404 91.2813 111.659 87.5958 111.162 85.0113C110.68 82.4269 110.096 79.2613 109.847 78.0073C109.613 76.738 108.795 73.0678 108.035 69.8258C106.092 61.5372 104.66 54.4414 103.125 45.7093C102.848 44.1648 102.585 42.9108 102.526 42.9108C102.322 42.9108 102.409 48.5232 102.629 50.8324C103.169 56.2001 104.587 64.4428 105.829 69.3058C107.056 74.1077 107.217 74.9335 107.451 77.9308C107.685 80.8059 107.787 81.2952 108.386 82.0598C108.766 82.5645 108.795 82.641 108.605 82.9927C108.357 83.4668 108.342 84.3843 108.605 85.0113C108.707 85.2866 109.058 85.8524 109.38 86.2806C109.906 86.9688 109.949 87.0758 109.774 87.3358C109.365 87.9169 109.526 88.7886 110.359 90.4708L111.148 92.0612L110.797 92.3518C110.329 92.7188 110.359 92.8411 110.958 93.5446C111.513 94.1869 111.615 94.768 111.25 95.2727C110.929 95.7314 110.987 96.0679 111.469 96.4808C112.01 96.9548 112.024 97.2454 111.542 97.5665C110.841 98.0406 111.118 98.5453 112.214 98.79C112.974 98.9582 112.799 100.013 112.01 100.136C111.834 100.166 111.674 100.304 111.645 100.457C111.601 100.656 111.805 100.824 112.404 101.114C113.661 101.711 113.778 102.338 112.697 102.705C112.404 102.812 112.127 103.026 112.068 103.225C111.864 103.791 112.024 103.959 112.843 103.913C113.267 103.898 113.69 103.928 113.778 103.989C114.114 104.204 113.953 104.739 113.354 105.289C112.682 105.947 112.74 106.085 113.807 106.375C115.093 106.712 115.298 107.231 114.392 107.858C113.603 108.394 113.515 108.501 113.515 108.883C113.515 109.327 113.749 109.434 114.684 109.434C115.97 109.434 116.306 110.351 115.268 111.039C114.947 111.253 114.684 111.529 114.684 111.651C114.684 111.773 115.064 112.079 115.546 112.324C116.014 112.584 116.437 112.89 116.496 113.027C116.657 113.501 116.584 113.716 116.262 113.716C115.312 113.731 114.801 114.312 115.21 114.924C115.4 115.199 115.575 115.245 116.379 115.245C117.285 115.245 117.314 115.26 117.314 115.627C117.314 115.902 117.153 116.116 116.73 116.392C116.218 116.728 116.16 116.82 116.291 117.08C116.496 117.478 117.007 117.814 117.577 117.936C118.22 118.074 118.235 118.64 117.606 118.915C117.066 119.16 116.876 119.481 116.978 120.031C117.051 120.429 117.095 120.444 117.899 120.444C118.717 120.444 118.761 120.475 118.98 120.918C119.258 121.499 119.214 121.591 118.439 121.989C117.08 122.708 117.066 123.197 118.396 123.197C119.214 123.197 119.608 123.411 119.681 123.87C119.711 124.114 119.608 124.206 119.112 124.313C118.556 124.42 118.483 124.482 118.483 124.864C118.483 125.368 118.644 125.537 119.389 125.781C119.871 125.95 120.091 126.194 120.091 126.577C120.091 126.653 119.828 126.714 119.491 126.714C118.936 126.714 118.907 126.73 118.951 127.142C118.98 127.479 119.155 127.647 119.871 128.014C120.368 128.274 120.763 128.595 120.792 128.748C120.865 129.146 120.558 129.467 120.076 129.467C119.754 129.467 119.652 129.543 119.652 129.757C119.652 130.14 119.959 130.384 120.587 130.492C120.88 130.537 121.113 130.599 121.113 130.629C121.113 130.66 121.011 130.92 120.88 131.21C120.529 131.96 120.69 132.449 121.406 132.77C122.18 133.137 122.209 133.642 121.479 134.009C120.967 134.269 120.69 134.789 120.894 135.11C120.938 135.202 121.289 135.278 121.669 135.278C122.619 135.278 122.984 135.416 123.101 135.783C123.174 136.027 123.086 136.211 122.735 136.532C122.37 136.884 122.136 136.96 121.552 136.96C120.865 136.96 120.821 136.991 120.821 137.358C120.821 137.847 121.523 138.184 122.619 138.184C123.072 138.184 123.51 138.275 123.685 138.398C123.934 138.612 123.948 138.642 123.729 138.872C123.612 139.009 123.276 139.239 122.998 139.377C122.443 139.667 122.282 140.156 122.648 140.478C122.779 140.585 123.218 140.753 123.627 140.845C124.328 141.013 124.357 141.043 124.124 141.288C123.977 141.426 123.7 141.594 123.481 141.64C122.735 141.808 122.429 141.992 122.429 142.313C122.429 142.634 122.969 142.97 123.758 143.138C124.124 143.215 124.153 143.276 124.124 144.025C124.109 144.805 124.109 144.805 124.767 145.218C125.643 145.754 125.629 146.105 124.708 146.595C123.861 147.038 123.758 147.222 124.167 147.65C124.416 147.91 124.664 147.971 125.351 147.971C126.184 147.971 126.228 147.986 126.228 148.353C126.228 148.644 126.096 148.797 125.687 148.996C125.103 149.286 124.913 149.806 125.19 150.265C125.322 150.464 125.41 150.464 125.819 150.28C126.71 149.898 126.885 149.959 126.929 150.678C126.973 151.198 126.915 151.351 126.666 151.488C126.505 151.58 126.228 151.611 126.082 151.565C125.877 151.488 125.789 151.534 125.789 151.718C125.789 152.1 126.432 152.681 127.061 152.849C127.368 152.941 127.748 153.109 127.908 153.232C128.171 153.43 128.171 153.461 127.937 153.828C127.806 154.042 127.382 154.409 127.002 154.639C126.608 154.868 126.286 155.082 126.257 155.097C126.228 155.113 126.286 155.281 126.374 155.464C126.535 155.77 126.637 155.785 127.66 155.74L128.785 155.694V156.305C128.785 156.887 128.77 156.917 128.098 157.116C127.192 157.376 127.148 157.774 127.981 158.217C128.61 158.553 129.077 158.615 129.223 158.37C129.37 158.125 129.735 158.492 129.633 158.768C129.589 158.875 129.34 159.119 129.063 159.303C128.084 159.93 128.566 160.97 129.837 160.97C130.655 160.97 130.67 161.276 129.852 162.147C129.077 162.973 129.223 163.202 130.582 163.34C131.956 163.478 132.175 163.539 132.277 163.814C132.526 164.502 131.868 164.946 130.641 164.946C129.998 164.946 129.998 164.946 130.202 165.297C130.334 165.481 130.787 165.772 131.269 165.94C131.737 166.108 132.146 166.322 132.175 166.414C132.248 166.628 130.641 167.087 127.952 167.622C124.971 168.203 122.721 169.029 122.151 169.748C122.034 169.885 121.903 169.992 121.844 169.992C121.669 169.992 120.88 168.188 120.47 166.857C119.915 165.114 119.433 162.484 118.922 158.446C118.162 152.482 117.65 149.668 117.022 147.726C116.671 146.671 116.657 145.937 116.963 145.677C117.49 145.203 117.49 144.958 116.963 143.567C115.707 140.279 115.049 136.884 114.026 128.626C113.033 120.612 112.653 118.38 111.323 113.18C109.92 107.644 109.482 105.366 109.336 102.705L109.233 101.053L109.628 100.656L110.037 100.273L109.467 99.9675C109.146 99.7993 108.81 99.5699 108.707 99.4475C108.415 99.0652 105.756 82.7786 104.455 73.3431C103.739 68.1436 103.257 65.0392 101.46 54.1508C99.8961 44.6541 99.4869 41.1674 99.5308 37.9866L99.56 35.7539L99.1216 35.0963C98.4348 34.087 98.3179 34.1481 98.3179 35.4633C98.3179 44.1342 100.831 64.4428 104.616 86.1889C106.72 98.3312 106.72 98.3006 107.655 101.374C108.547 104.265 108.664 104.907 108.766 107.721C108.883 110.688 109.219 112.676 110.432 117.967C111.688 123.38 111.82 124.145 112.989 132.22C114.684 143.796 116.774 156.749 118.775 167.851C119.17 170.084 119.506 171.95 119.506 172.011C119.506 172.179 118.045 173.005 116.817 173.51C113.354 174.962 109.35 175.284 106.267 174.335L105.522 174.121L105.434 170.329C105.127 158.355 104.061 146.503 100.714 118.15C100.013 112.156 99.1362 104.219 98.5225 98.1935C98.0695 93.8504 97.9818 92.3823 97.8796 87.5652C97.8211 84.4455 97.6311 80.2247 97.4558 78.0073C96.3599 63.7546 96.243 61.7513 96.1991 57.1329C96.1553 52.3769 96.1114 51.3676 95.7607 48.2632C95.4977 45.9999 95.1909 44.3789 94.694 42.7732C94.2264 41.2133 94.1972 41.2898 93.9342 44.7612C93.6565 48.5538 93.8027 52.8969 94.2849 55.0684C94.7525 57.1329 94.7525 57.3011 94.2995 57.7446C93.8757 58.1575 93.8465 58.4481 94.1534 59.5033C94.3141 60.0385 94.3726 60.8949 94.3579 62.4547C94.3579 64.4886 94.3726 64.718 94.7086 65.4062L95.0593 66.1555H94.6648C93.7734 66.1555 93.7004 66.9966 94.5625 67.4248C94.9571 67.6389 95.1032 67.8071 95.1032 68.0671C95.1032 68.5106 94.7525 68.9082 94.3579 68.9082C93.9926 68.9082 94.0072 68.9694 94.5187 69.7493C95.1324 70.6822 95.1324 71.0186 94.5479 71.4468L94.0657 71.7985L94.7963 72.349C95.2055 72.6549 95.5416 72.9455 95.5416 72.9913C95.5416 73.0219 95.2785 73.3431 94.9424 73.6795L94.3433 74.2912L94.8109 74.7041L95.2639 75.1017L95.0301 75.8969C94.8109 76.6463 94.8255 76.7074 95.1032 77.1968C95.2639 77.4721 95.4685 78.0532 95.5562 78.4967C95.7169 79.2154 95.7023 79.3378 95.4685 79.613C95.3224 79.7812 95.1178 79.9189 95.0009 79.9189C94.8548 79.9189 94.884 80.0871 95.1324 80.5612C95.4246 81.1423 95.4685 81.5246 95.5416 83.895C95.6146 86.3265 95.6438 86.6323 95.9507 87.1676C96.3599 87.8863 96.2868 88.1769 95.6877 88.1769C95.0301 88.1769 95.0886 88.7427 95.8338 89.4462C96.5937 90.1496 96.6229 90.6237 95.9215 90.6237C95.6438 90.6237 95.3662 90.7002 95.3224 90.7919C95.2639 90.8684 95.4977 91.373 95.8192 91.8777C96.6229 93.1317 96.5937 93.5752 95.6877 93.7128C95.41 93.7434 95.3224 93.8504 95.3224 94.1257C95.3224 94.4163 95.4831 94.5998 95.9799 94.9056C97.0028 95.5326 97.1928 96.5878 96.2722 96.5878C95.6877 96.5878 95.5854 96.909 95.9653 97.5513C96.3891 98.27 96.3599 98.5606 95.8338 98.7441C95.6 98.8358 95.3954 98.9735 95.3954 99.0499C95.3954 99.2793 95.9361 99.7687 96.579 100.105L97.1782 100.442L96.8128 100.839C96.0092 101.726 96.0384 102.368 96.9005 102.705C97.4704 102.919 97.3681 103.317 96.6667 103.684C95.9507 104.051 95.9799 104.494 96.7398 104.922C97.485 105.335 97.4704 105.717 96.7106 106.039C95.8776 106.375 95.9507 106.834 96.8567 107.063C97.3681 107.201 97.5435 107.323 97.6604 107.66C97.8211 108.149 97.6165 108.363 96.9736 108.363C96.3891 108.363 96.4329 108.914 97.0905 109.724L97.6311 110.366L97.222 110.81L96.8274 111.238L97.1343 111.559C97.3243 111.758 97.6311 111.88 97.9526 111.88C98.3618 111.88 98.4641 111.942 98.4641 112.171C98.4641 112.553 98.0841 112.951 97.7334 112.951C97.5873 112.951 97.3389 113.073 97.1635 113.211C96.9005 113.456 96.8859 113.532 97.0466 113.853C97.1343 114.067 97.5142 114.45 97.8796 114.71C98.5956 115.229 98.9317 115.887 98.6394 116.193C98.5517 116.285 98.1134 116.361 97.6458 116.346C96.959 116.331 96.8421 116.361 96.9151 116.56C96.959 116.698 97.0028 116.866 97.0028 116.942C97.0028 117.019 97.3681 117.325 97.8065 117.615C98.2449 117.906 98.6832 118.303 98.7709 118.472C99.0339 118.991 98.7271 119.481 97.9965 119.695C97.222 119.924 97.0028 120.093 97.0028 120.46C97.0028 120.842 97.2074 120.934 98.2303 121.041C98.9755 121.117 99.1216 121.178 99.1655 121.438C99.2385 121.958 98.8586 122.31 98.128 122.386C97.0028 122.524 97.0466 123.013 98.2156 123.472C99.4869 123.977 99.4869 124.573 98.2156 124.894C97.412 125.109 97.1635 125.506 97.5873 125.95C97.7919 126.164 98.0695 126.255 98.581 126.255C99.7061 126.255 100.291 126.928 99.6769 127.525C99.5308 127.647 99.0339 127.907 98.5663 128.091L97.7188 128.427L98.0695 128.901C98.6248 129.666 99.1362 129.987 99.7792 130.002C100.305 130.002 100.364 130.033 100.364 130.4C100.364 130.706 100.261 130.843 99.9253 130.981C99.6915 131.073 99.297 131.226 99.0632 131.317C98.128 131.684 98.391 132.403 99.6038 132.77C100.057 132.908 100.539 133.107 100.656 133.229C100.977 133.55 100.671 133.932 99.9253 134.162C99.1216 134.406 98.9024 134.605 98.9024 135.14C98.9024 135.676 99.0193 135.752 100.086 135.844C101.08 135.951 101.328 136.211 101.167 136.976C101.05 137.496 100.963 137.511 100.057 137.174C99.0924 136.807 98.9024 136.93 98.9024 137.939C98.9024 139.055 99.1947 139.407 100.144 139.514C101.445 139.636 101.533 139.682 101.533 140.156C101.533 140.783 101.211 140.967 99.9984 141.059C98.9901 141.12 98.9024 141.15 98.9024 141.456C98.9024 141.961 99.2824 142.404 100.071 142.863C100.963 143.368 101.021 143.735 100.291 144.056C99.6769 144.331 99.5746 144.561 99.7792 145.142C99.9253 145.555 99.9691 145.555 100.685 145.478C101.547 145.371 101.971 145.555 101.971 146.044C101.971 146.503 101.562 146.87 100.934 146.992C100.261 147.13 99.7792 147.466 99.7792 147.803C99.7792 148.231 100.086 148.414 101.036 148.521C102.176 148.659 102.409 148.797 102.409 149.347C102.409 149.883 102.088 150.02 101.167 149.867C100.729 149.806 100.437 149.837 100.291 149.959C99.9984 150.219 99.9984 151.473 100.305 151.932C100.51 152.222 100.641 152.268 101.153 152.222C102.862 152.023 102.819 152.987 101.094 153.583C100.422 153.813 100.276 153.92 100.247 154.256C100.188 154.807 100.597 155.113 101.635 155.296C102.731 155.48 103.14 155.694 103.14 156.061C103.14 156.52 102.789 156.703 101.693 156.825C100.568 156.948 100.13 157.223 100.276 157.712C100.422 158.171 101.197 158.553 102.205 158.645C103.111 158.722 103.14 158.722 103.14 159.15C103.14 159.716 102.789 159.899 101.766 159.899C101.124 159.899 100.948 159.945 100.948 160.144C100.948 160.603 101.255 160.97 101.971 161.352C102.366 161.551 102.731 161.795 102.775 161.887C102.95 162.193 102.409 162.606 101.708 162.713C100.656 162.866 100.597 162.942 100.963 163.799C101.255 164.472 101.27 164.701 101.182 166.536C101.065 168.815 101.197 169.319 102.073 169.931C102.541 170.268 102.556 170.268 102.293 170.604C102.117 170.818 101.854 170.956 101.562 170.971C101.299 170.971 101.094 171.063 101.094 171.155C101.094 171.445 101.766 171.98 102.453 172.225C102.833 172.363 103.14 172.516 103.14 172.592C103.14 172.653 102.862 172.837 102.526 172.99C101.986 173.219 101.284 173.28 97.8796 173.357C95.5269 173.418 93.7004 173.525 93.4812 173.632L93.0867 173.8L92.9697 169.717C92.8967 167.469 92.8675 156.994 92.9113 146.442C93.0282 115.26 92.9844 95.3032 92.7944 85.1184C92.6921 79.8577 92.546 72.0126 92.4729 67.6848C92.356 60.2985 92.3268 59.4727 91.83 54.4414C91.3185 49.0431 91.1724 45.8776 91.377 43.599C91.4939 42.192 91.3185 41.2898 90.8071 40.6628L90.471 40.2652L90.3687 45.22C90.2372 51.597 90.5002 67.8683 90.8656 76.998C91.2747 86.9688 91.3624 95.2115 91.1578 105.61C90.9094 117.676 90.9094 118.196 91.1286 122.05C91.4062 126.928 91.4501 164.518 91.187 167.851C90.9678 170.65 90.4856 174.748 90.2372 176.033L90.0472 176.95L89.4043 177.073C88.133 177.317 86.3941 177.088 84.3776 176.415C82.5072 175.803 82.478 175.788 80.5053 175.834C78.6933 175.865 78.4595 175.834 77.9043 175.528C77.5536 175.345 77.2759 175.1 77.2759 174.993C77.2759 174.886 77.4951 173.663 77.7727 172.286C79.7016 162.652 80.5491 153.736 81.5866 132.525C82.3026 117.722 82.5656 113.853 84.363 91.0825C86.2626 67.0731 86.7887 58.2187 87.0079 45.6176L87.1101 40.1428L86.7302 40.3263C85.9119 40.7239 85.8242 41.0451 85.8096 44.0577C85.8096 46.4281 85.7512 47.1315 85.3859 49.1808C84.9913 51.3523 84.9621 51.8417 84.9475 55.0684C84.9475 58.5857 84.9475 58.5857 84.553 59.3045L84.173 60.0232L84.4507 60.589C84.6991 61.109 84.6991 61.1702 84.4799 61.3384C84.2899 61.4913 84.2753 61.6595 84.3776 62.4242C84.5383 63.617 84.4945 63.8617 84.0561 64.3357L83.6908 64.7333L84.1438 65.1156L84.5968 65.4827L84.2169 66.5073C83.8077 67.6389 83.7639 68.2506 84.0269 69C84.1584 69.4129 84.1292 69.734 83.7785 71.1103C83.3547 72.7619 83.3547 72.9913 83.7931 74.1842C83.8369 74.2912 83.6762 74.6276 83.4278 74.9182C83.1794 75.2088 82.9748 75.4993 82.9748 75.5452C82.9748 75.6064 83.1355 75.8816 83.3255 76.1416C83.9392 76.998 83.9392 77.258 83.3109 77.5791C82.6241 77.9156 82.5218 78.3896 83.0186 78.9096C83.3401 79.246 83.3547 79.3072 83.1355 79.5213C82.9748 79.6895 82.8725 80.1483 82.8287 80.8823L82.7556 81.9834L82.2442 82.1516C81.5135 82.3963 81.5282 82.7327 82.3026 83.2068C82.6533 83.4209 82.9894 83.7114 83.0332 83.8338C83.0771 83.9561 82.931 84.4608 82.6972 84.9349C81.9958 86.4029 81.8935 86.8617 82.1565 87.397C82.478 88.0393 82.4487 88.3145 82.025 88.5133C81.8204 88.6051 81.6597 88.8039 81.6597 88.9568C81.6597 89.1097 81.8204 89.3544 82.025 89.4921C82.4926 89.8132 82.478 90.0273 82.0104 90.6084C81.6304 91.0825 81.6304 91.0978 81.8642 91.7095C82.0834 92.2753 82.0834 92.3976 81.8642 93.2693C81.7181 93.8504 81.6597 94.4774 81.7181 94.9056C81.9081 96.4043 81.9081 96.3431 81.4259 96.5114L80.9583 96.6643L81.309 97.3525C81.6743 98.1018 81.7766 99.004 81.4843 98.9888C80.4761 98.9582 80.4176 99.1723 81.1482 100.289C81.762 101.206 81.762 101.604 81.1482 101.94C80.9144 102.063 80.6806 102.185 80.6514 102.2C80.5199 102.277 81.0898 102.995 81.3674 103.087C81.8204 103.24 81.6451 103.531 81.0606 103.622C80.3592 103.729 80.3007 104.311 80.9144 105.045C81.1628 105.335 81.3674 105.687 81.3674 105.809C81.3674 106.146 80.8998 106.39 80.6222 106.207C80.2861 105.977 80.1984 106.039 80.1984 106.559C80.1984 106.926 80.3445 107.17 80.8121 107.614C81.3966 108.195 81.4113 108.21 81.1482 108.516C80.9875 108.7 80.6952 108.822 80.3884 108.822C79.9792 108.822 79.9062 108.868 79.9062 109.189C79.9062 109.418 80.0961 109.709 80.4176 109.999C81.0752 110.55 81.1628 111.131 80.6076 111.192C80.403 111.223 80.0523 111.345 79.8331 111.468L79.424 111.682L80.0961 112.263C80.7975 112.874 81.1775 113.563 81.0021 113.884C80.929 113.991 80.666 114.021 80.2569 113.96C79.3801 113.838 79.1755 113.96 79.1755 114.557C79.1755 115.046 79.2194 115.077 79.7747 115.199C80.593 115.367 80.8121 115.719 80.3884 116.193C79.7893 116.866 79.7308 117.309 80.1107 118.273C80.7537 119.909 80.7829 119.817 79.7308 119.863C78.8979 119.909 78.8102 119.94 78.8541 120.215C78.8833 120.383 79.0879 120.811 79.3363 121.163C79.8769 121.958 79.8769 122.188 79.3217 122.432C79.0879 122.539 78.8833 122.677 78.8833 122.738C78.8833 122.815 79.2194 123.166 79.6285 123.533C80.1838 124.038 80.3299 124.267 80.2569 124.466C80.14 124.787 79.6285 125.032 79.0879 125.032C78.518 125.032 78.6349 125.583 79.3217 126.026C79.6431 126.24 79.9062 126.485 79.9062 126.561C79.9062 126.638 79.7016 127.051 79.4678 127.448C78.8833 128.458 78.8979 128.87 79.5555 129.436C80.3007 130.079 80.1984 130.446 79.2778 130.507L78.5618 130.553L78.8248 130.966C79.0294 131.287 79.1025 131.684 79.1025 132.77C79.1025 133.886 79.1609 134.238 79.3655 134.468C79.497 134.636 79.6139 134.911 79.6139 135.095C79.6139 135.569 78.9271 136.349 78.5034 136.349C77.9189 136.349 78.1527 137.251 78.9417 138.015C79.4093 138.474 79.2632 138.811 78.4449 139.254C78.1234 139.422 77.8604 139.636 77.8604 139.728C77.8604 139.942 78.8833 141.013 79.1609 141.105C79.4678 141.212 79.1025 141.732 78.4157 142.175C77.7289 142.634 77.7143 142.94 78.3865 143.276C78.8541 143.521 78.8979 143.582 78.8541 144.117C78.8102 144.652 78.7664 144.698 78.1088 144.912C77.4951 145.111 77.422 145.188 77.4513 145.524C77.4805 145.784 77.6851 146.014 78.1234 146.258C78.7518 146.625 79.1171 147.099 78.9564 147.359C78.9125 147.451 78.6057 147.512 78.2842 147.512C77.612 147.512 77.1298 147.726 77.1298 148.032C77.1298 148.307 77.8312 148.934 78.4303 149.179C78.6787 149.301 78.8833 149.485 78.8833 149.592C78.8833 149.852 78.3572 150.204 77.7581 150.341C76.7353 150.555 76.7791 151.244 77.8312 151.809C78.9271 152.391 78.8102 153.323 77.6266 153.323C76.9691 153.323 76.896 153.675 77.422 154.302C78.1088 155.113 78.0212 155.388 76.9106 155.77C76.3846 155.954 75.9608 156.137 75.9608 156.168C75.9608 156.474 76.3407 156.841 76.7937 156.994C77.5097 157.238 77.8604 157.575 77.8604 157.988C77.8604 158.431 77.5828 158.676 76.9252 158.783C76.4868 158.859 76.3992 158.936 76.3992 159.226C76.3992 159.502 76.5453 159.655 76.9544 159.853C77.2905 160.022 77.5097 160.251 77.5389 160.45C77.5828 160.725 77.4805 160.786 76.9983 160.878C76.3992 160.97 75.9608 161.413 75.9608 161.918C75.9608 162.071 76.2238 162.361 76.5453 162.575C77.3782 163.126 77.3344 163.508 76.4284 163.631C76.0339 163.676 75.5955 163.814 75.4494 163.936C75.2009 164.12 75.1863 164.181 75.3763 164.411C75.4932 164.563 75.8439 164.839 76.1361 165.037C76.7499 165.45 76.896 166.016 76.3992 166.016C76.2238 166.016 75.8877 166.123 75.6539 166.261C75.2156 166.49 75.2156 166.506 75.464 166.811C75.6101 166.98 75.9462 167.209 76.2092 167.316C77.0713 167.698 76.7645 168.249 75.6101 168.402C75.084 168.478 74.9379 168.555 75.011 168.738C75.3178 169.564 75.6685 171.415 75.6685 172.164C75.6685 172.653 75.6539 173.051 75.6247 173.051C75.5955 173.051 75.1279 172.806 74.558 172.516C72.1323 171.231 69.5605 170.619 66.0681 170.497L63.5402 170.405V169.901C63.5402 169.625 63.4671 169.381 63.3794 169.35C63.2625 169.304 63.4817 167.851 64.0954 164.64C64.5776 162.071 65.3813 157.468 65.8636 154.394C66.3458 151.32 67.2371 145.662 67.8508 141.808C69.5751 130.813 70.3642 126.913 71.6647 122.692C72.6438 119.557 72.7753 118.946 72.8922 117.462C72.9945 116.055 73.0967 115.612 73.4913 114.725L73.9589 113.67L74.0758 109.908C74.1927 105.687 74.2073 105.58 75.6539 98.3465C77.6266 88.4827 80.5199 71.4315 81.5135 63.7852C82.5656 55.6954 83.2524 46.5504 83.267 40.7239V39.3782L82.8433 39.6076C82.098 40.0205 81.9227 40.6781 82.025 42.8037C82.1273 44.8682 82.1127 45.0365 79.8477 62.7147C79.2486 67.4248 78.6203 72.5784 78.4449 74.1842C78.2696 75.7899 77.9481 77.8697 77.7143 78.8484C76.633 83.3444 75.6247 89.1709 73.9881 100.411C71.9424 114.343 71.2848 117.814 69.1514 125.873C67.617 131.654 67.5294 131.975 67.2079 133.519C66.7987 135.446 66.0097 140.416 65.1475 146.518C63.6863 156.932 63.0287 160.756 61.9182 165.481C60.8661 169.977 60.603 170.818 60.2085 170.879C60.0332 170.91 59.887 170.986 59.887 171.063C59.887 171.292 58.908 171.537 58.4842 171.43C58.2504 171.369 57.7098 171.047 57.2714 170.726C56.2777 169.946 55.5033 169.671 52.7561 169.075C50.0236 168.494 49.0738 168.142 48.3285 167.408C47.6418 166.704 47.6271 166.46 48.124 164.563C48.3285 163.799 48.6208 162.377 48.7815 161.398C49.1468 159.165 49.5414 157.758 50.8127 154.042C52.5223 149.072 52.61 148.72 52.873 145.906C53.1068 143.506 53.2237 143.016 54.4366 139.744C55.2987 137.358 55.6348 136.226 56.1024 133.932C57.4029 127.479 59.2295 120.276 62.0643 110.428C62.5465 108.745 63.1748 106.482 63.4525 105.396C63.8178 103.974 64.0662 103.317 64.3292 103.026C64.6945 102.628 64.7092 102.537 64.6799 101.16C64.6507 99.7381 64.6507 99.6922 65.469 97.5054C68.6838 88.7886 68.976 87.7793 70.2473 80.76C71.3579 74.6888 71.7816 72.976 72.8337 70.361C73.5351 68.6024 73.8566 67.5319 74.2073 65.7732C74.4557 64.5039 75.1863 61.2619 75.8293 58.5398C76.4576 55.8177 77.2175 52.4075 77.5097 50.97C78.6203 45.3729 79.4532 41.9779 80.1546 40.0664C80.2861 39.6993 79.6724 39.8217 79.1755 40.2499C78.5034 40.8463 78.0504 41.8709 76.3115 46.6881C75.9023 47.8197 75.727 48.9055 75.5224 51.4746C75.2886 54.4414 75.084 55.9707 74.8649 56.2153C74.7626 56.3377 74.6164 56.6435 74.5726 56.9035C74.4265 57.5611 74.0904 58.0505 73.7981 58.0505C73.5936 58.0505 73.5497 58.2187 73.5351 59.1668C73.5351 60.5737 72.9798 62.2559 72.1469 63.4182C71.5186 64.3051 71.4748 64.5345 71.7962 65.6356C71.9131 66.0485 72.0154 66.6449 72.0154 66.9508V67.5319H71.2848C70.8026 67.5319 70.5542 67.593 70.5396 67.7154C70.4957 68.1589 70.6126 68.3883 71.0218 68.7553C71.314 69.0153 71.4455 69.2599 71.4163 69.4434C71.3579 69.7034 71.2117 69.7493 70.4665 69.7952L69.5897 69.8411L69.6482 71.3244C69.6774 72.1655 69.7943 73.0066 69.9112 73.2513C70.1742 73.8171 70.1742 73.8018 69.8235 73.8018C69.429 73.8018 68.8007 74.123 68.8007 74.3371C68.8007 74.4288 69.0345 74.7347 69.3121 75.0253C69.7066 75.4229 69.8235 75.6675 69.8235 76.0651C69.8235 76.5698 69.8089 76.5851 69.3559 76.5239C69.0929 76.478 68.7568 76.4016 68.6253 76.3251C68.3915 76.2334 68.3623 76.3098 68.3623 76.8604C68.3623 77.5944 68.5669 78.0838 68.8737 78.0838C69.1368 78.0838 69.1514 78.252 68.9176 78.5884C68.7568 78.8025 68.6399 78.8178 68.2308 78.6955C67.9531 78.619 67.6755 78.5884 67.6171 78.6343C67.354 78.8025 67.5001 79.5672 67.9239 80.2247C68.3623 80.9129 68.4792 81.2952 68.2308 81.2952C68.1577 81.2952 67.8362 81.2035 67.5148 81.0811C66.6234 80.7447 66.4481 81.1576 67.1933 81.861C67.8801 82.5033 67.7778 82.7939 66.8718 82.8551L66.0974 82.9009L66.0535 83.635C66.0243 84.1702 66.1412 84.7819 66.4627 85.7454C66.7111 86.4947 66.8718 87.1829 66.828 87.2593C66.7111 87.4581 65.6005 87.7487 65.279 87.6722C64.753 87.5193 64.9722 88.1463 65.5859 88.5745C66.0681 88.9109 66.1704 89.0639 66.1704 89.4921C66.1704 90.0885 65.922 90.272 64.9284 90.4249C64.1539 90.5319 64.1539 90.7002 64.8699 91.1895C65.5859 91.6942 65.732 91.8318 65.732 92.0765C65.732 92.2447 65.5421 92.3059 65.0014 92.3059C64.3877 92.3059 64.2708 92.3518 64.2708 92.5964C64.2708 92.7494 64.4754 93.1317 64.7092 93.4528C65.1622 94.0492 65.2206 94.248 65.0306 94.5539C64.9576 94.6915 64.7676 94.6915 64.3 94.5539C63.6278 94.3704 63.2187 94.508 63.131 94.9515C63.1018 95.0891 63.3502 95.502 63.6717 95.8691C64.0078 96.2361 64.2708 96.6796 64.2708 96.8478C64.2708 97.2301 63.7155 97.5054 62.9557 97.5054C62.6342 97.5054 62.3712 97.5665 62.3712 97.6583C62.3712 98.01 62.7219 98.5453 63.1018 98.79L63.5255 99.0499L62.9849 99.5699C62.4442 100.075 62.4442 100.09 62.4442 101.359V102.628L61.6844 102.674C60.7638 102.735 60.6907 102.95 61.3483 103.714C61.9328 104.418 61.8159 104.632 60.9099 104.571C60.2523 104.509 60.1793 104.54 60.1793 104.831C60.1793 105.014 60.34 105.427 60.5446 105.763C60.7492 106.1 60.9099 106.513 60.9099 106.681C60.9099 106.941 60.8076 106.987 60.3254 106.987C59.814 106.987 59.7409 107.033 59.7409 107.354C59.7409 107.553 59.9455 107.966 60.1793 108.287C60.7346 109.021 60.7638 109.678 60.2377 109.923C59.9601 110.061 59.7555 110.061 59.4487 109.938C58.6742 109.632 58.6304 110.29 59.3756 111.024C59.6532 111.315 59.887 111.666 59.887 111.835C59.887 112.171 59.3464 112.492 58.7765 112.492C58.4258 112.492 58.4112 112.538 58.4988 112.997C58.5573 113.257 58.6157 113.593 58.6596 113.731C58.7765 114.159 58.3527 114.541 57.7828 114.526C57.3298 114.511 57.2568 114.557 57.2568 114.862C57.2568 115.092 57.4321 115.367 57.7536 115.627C58.2943 116.055 58.4988 116.667 58.192 116.942C58.0312 117.08 57.8121 117.065 57.3152 116.927C56.7453 116.759 56.6284 116.759 56.4239 116.973C56.2047 117.202 56.2485 117.279 56.9499 117.967C57.5783 118.594 57.7098 118.808 57.6659 119.16C57.6221 119.603 57.6221 119.603 56.4823 119.649L55.3279 119.695L55.927 120.138C56.4093 120.505 56.5262 120.689 56.5262 121.071C56.5262 121.469 56.4823 121.53 56.2777 121.438C55.6348 121.148 55.3572 121.163 55.3572 121.484C55.3572 121.851 55.5617 122.035 56.2777 122.264C56.7307 122.432 56.8184 122.524 56.8184 122.876C56.8184 123.625 56.3946 123.855 55.2841 123.732C54.5827 123.656 54.3343 123.686 54.3343 123.809C54.3343 124.023 55.2549 125.001 55.7809 125.353C56.3508 125.736 56.0439 125.95 54.9042 125.95C54.1882 125.95 53.8959 126.011 53.8959 126.133C53.8959 126.454 54.0713 126.638 54.7288 127.081C55.1964 127.372 55.3572 127.586 55.3572 127.861C55.3572 128.213 55.3133 128.243 54.6265 128.243C53.9836 128.243 53.8959 128.274 53.8959 128.565C53.8959 128.748 54.0859 129.13 54.3343 129.421C54.7873 129.956 54.8457 130.17 54.6411 130.522C54.5535 130.66 54.3781 130.706 54.1005 130.629C53.2383 130.4 52.9461 130.446 52.9023 130.782C52.873 131.027 53.0045 131.21 53.3699 131.455C53.8667 131.776 54.3343 132.311 54.3343 132.556C54.3343 132.632 53.9105 132.678 53.3845 132.678C52.6538 132.678 52.4347 132.724 52.4347 132.892C52.4347 133.183 52.7854 133.535 53.3406 133.841C53.7206 134.039 53.7644 134.131 53.6767 134.559C53.516 135.324 53.326 135.477 52.6538 135.385C52.3324 135.339 51.9524 135.263 51.8209 135.202C51.6017 135.11 51.5579 135.171 51.5579 135.492C51.5579 135.92 51.7625 136.165 52.5808 136.716C52.9753 136.976 53.0922 137.144 53.0922 137.496C53.0922 138 52.9461 138.031 51.8063 137.801L51.251 137.679L51.2949 138.199C51.3241 138.612 51.4556 138.795 51.8794 139.086C52.5662 139.545 52.6538 140.08 52.0401 139.912C51.3241 139.713 50.7688 139.774 50.7104 140.034C50.6958 140.172 50.9003 140.569 51.1926 140.921C51.4702 141.288 51.704 141.701 51.704 141.869C51.704 142.129 51.5871 142.16 50.7542 142.16C49.9067 142.16 49.8044 142.19 49.8044 142.466C49.8044 142.664 49.9944 142.863 50.3597 143.031C50.7688 143.246 50.915 143.414 50.9442 143.735C50.988 144.148 50.9734 144.148 50.1843 144.148C49.7313 144.148 49.366 144.209 49.366 144.285C49.366 144.668 49.5998 144.958 50.1551 145.249C50.8127 145.601 50.9734 145.769 50.9734 146.166C50.9734 146.411 50.8273 146.442 49.8044 146.442C48.7523 146.442 48.6354 146.472 48.6354 146.732C48.6354 146.9 48.8984 147.359 49.2199 147.742C49.819 148.46 50.2428 149.194 50.2428 149.5C50.2428 149.592 49.7898 149.653 49.0738 149.653C48.0217 149.653 47.9048 149.684 47.9048 149.944C47.9048 150.234 48.5331 150.877 48.8254 150.877C49.0884 150.877 49.5122 151.366 49.5122 151.656C49.5122 151.809 49.3514 152.054 49.1615 152.176C48.8692 152.375 48.6939 152.391 48.2409 152.268C47.3787 152.008 47.1742 152.054 47.1742 152.482C47.1742 152.712 47.3203 152.956 47.5541 153.125C48.2263 153.599 48.7815 154.21 48.7815 154.455C48.7815 154.654 48.6062 154.7 47.8609 154.7C46.5458 154.7 46.4289 154.899 47.2618 155.785C47.7148 156.275 47.9194 156.596 47.8609 156.749C47.7148 157.147 47.3057 157.223 46.8527 156.948C46.6043 156.81 46.2536 156.688 46.049 156.688C45.4791 156.688 45.6545 157.299 46.3266 157.682C46.7212 157.896 46.8819 158.095 46.8819 158.324C46.8819 158.645 46.8088 158.676 46.1513 158.676C45.7567 158.676 45.4207 158.706 45.4207 158.752C45.4207 158.798 45.6545 159.18 45.9321 159.609C46.2097 160.037 46.4435 160.465 46.4435 160.572C46.4435 160.664 46.4874 160.893 46.5312 161.077C46.6189 161.398 46.575 161.428 46.1221 161.428C45.8444 161.428 45.2015 161.214 44.69 160.954C43.7402 160.45 41.9429 158.813 41.5191 158.049C41.3292 157.728 41.0515 157.544 40.467 157.361C39.5903 157.101 38.8889 156.627 37.3107 155.296C36.2732 154.424 35.2357 153.782 34.8412 153.782C34.3882 153.782 34.4613 153.4 35.3234 151.595C36.3755 149.363 37.3838 147.619 38.6405 145.876C39.3565 144.882 39.5757 144.469 39.5757 144.071C39.5757 142.986 40.1309 141.135 40.7739 139.988C44.4562 133.626 47.2618 126.882 53.0192 110.581C53.6767 108.73 54.9918 105.213 55.9417 102.781C57.5929 98.5147 58.6596 95.6397 60.4715 90.3943C62.3565 84.996 66.3458 74.0465 69.5751 65.4674C70.5249 62.9135 71.0656 61.2313 71.3432 59.9467C71.767 57.9128 73.0237 53.3098 74.6311 47.8962C75.5663 44.7459 75.6685 44.2565 75.6685 43.1555L75.6539 41.9168L75.2302 42.4061C74.7918 42.9108 74.558 43.6143 74.1342 45.7399C73.9443 46.6269 73.5936 47.5444 72.8191 49.1043C71.5478 51.6734 71.4894 51.8417 71.2117 54.0591C70.9925 55.8483 70.8026 56.3377 70.1889 56.7659C69.6482 57.1329 69.0491 58.968 67.7047 64.3969C67.4125 65.5744 66.9741 67.226 66.7257 68.0671C65.8782 70.9574 62.678 79.5977 61.5529 82.014C60.0624 85.2254 59.9893 85.4089 59.4487 87.4276C58.5865 90.6084 57.9143 92.627 55.8978 98.1171C55.2987 99.7534 54.4658 102.124 54.042 103.393C51.9086 109.892 51.3241 111.483 49.1907 116.851C42.5566 133.519 37.9683 143.521 33.9352 150.143C33.1461 151.427 33.1461 151.427 32.2694 151.626C31.0566 151.886 30.9397 151.809 28.1487 148.858C25.913 146.503 25.4746 145.968 25.0216 144.974C24.5248 143.934 24.4809 143.72 24.4663 142.511C24.4517 141.196 24.4663 141.166 24.8462 140.967C25.0654 140.86 25.533 140.416 25.8691 139.973C26.2198 139.545 26.8043 138.872 27.1696 138.49C27.6372 138 27.8856 137.587 28.0318 137.037C28.1925 136.456 28.4555 136.043 29.1569 135.278C29.8729 134.498 30.2821 133.841 31.0712 132.22C31.6118 131.088 33 128.595 34.1398 126.684C36.3609 122.983 37.5299 120.75 38.2605 118.93C38.5089 118.303 38.9473 117.508 39.2688 117.141C40.0579 116.254 40.6131 115.046 41.183 112.951C41.7383 110.917 42.1767 109.938 42.9365 108.975C43.8571 107.797 43.974 107.537 44.1055 106.146C44.2517 104.632 44.5585 103.867 46.1513 100.946C46.7066 99.9369 47.7879 97.7042 48.5623 95.9761C52.7561 86.6935 56.2485 78.6802 59.4633 70.9727C60.3692 68.7859 61.699 65.7885 62.415 64.3204C64.8553 59.3197 66.0974 56.3071 69.429 47.3304C70.3496 44.853 71.4455 42.1156 71.8547 41.2439C72.6291 39.5923 72.7753 38.7818 72.41 38.2618C72.22 38.0019 72.1762 38.0324 71.7378 38.6442C71.0802 39.6076 69.9843 41.8709 68.9468 44.5165C67.9824 46.9327 67.0472 48.982 66.5942 49.6548C66.448 49.8689 66.2873 50.3583 66.2289 50.7253C65.8928 53.1874 65.2498 54.9308 62.9995 59.5797C62.1227 61.3843 61.246 63.4029 61.056 64.0452C60.8515 64.7027 60.6177 65.238 60.53 65.238C60.4423 65.238 60.2523 65.4062 60.1208 65.6203C59.9893 65.8344 59.7409 66.0026 59.5802 66.0026C59.3464 66.0026 59.3025 66.0638 59.3756 66.2626C59.434 66.4155 59.5071 66.752 59.5509 67.0119C59.624 67.4554 59.5802 67.5319 59.098 67.7613C58.4112 68.113 58.0751 68.7094 57.6367 70.4222C57.1837 72.1808 56.8476 72.869 56.2631 73.2666C55.8248 73.5572 55.8101 73.6183 55.7955 74.6123V75.6675L55.2549 75.6064C54.7873 75.5605 54.6996 75.6064 54.6558 75.8816C54.6265 76.0651 54.7142 76.478 54.8311 76.7839C54.9626 77.105 55.0649 77.4874 55.0649 77.6403C55.0649 78.0073 54.5389 78.2367 53.7352 78.2367C53.0192 78.2367 52.9607 78.5884 53.6037 79.2307C53.8375 79.4754 54.042 79.7813 54.042 79.9036C54.042 80.0412 53.7059 80.3471 53.2968 80.607C51.9963 81.4176 51.3972 82.5951 51.3826 84.3843C51.3826 85.3478 51.3679 85.4089 50.9734 85.5771C50.6519 85.7148 50.4912 85.7148 50.2428 85.5771C49.9798 85.4242 49.8921 85.4395 49.7898 85.5924C49.7167 85.7148 49.6875 85.8677 49.7167 85.9595C49.746 86.0359 49.8482 86.3724 49.9651 86.6782C50.0967 87.0911 50.1113 87.3817 50.009 87.6722C49.8921 88.0545 49.7898 88.1004 49.103 88.1463C48.197 88.2075 48.0947 88.4827 48.7815 89.1709C49.3076 89.6909 49.3368 90.012 48.8838 90.012C48.3139 90.012 47.9486 90.6084 47.4956 92.3059C46.8819 94.661 46.5312 95.2115 45.7275 95.2115C45.333 95.2115 45.2015 95.7467 45.4791 96.2055C45.6106 96.4043 45.7129 96.7407 45.7129 96.9548C45.7129 97.2607 45.6106 97.3677 45.1576 97.4901C44.8654 97.5818 44.5293 97.6583 44.4124 97.6583C44.2517 97.6583 44.237 97.8112 44.3247 98.3771C44.5147 99.7228 44.4855 100.136 44.2078 100.319C43.9886 100.457 43.8863 100.411 43.6087 100.059C43.2434 99.5852 42.9219 99.5393 42.6297 99.891C42.4689 100.09 42.4835 100.227 42.7612 100.763C43.3165 101.848 43.1995 102.093 42.3228 101.711C42.1036 101.619 42.0598 101.68 42.0598 102.139C42.0598 102.583 42.1621 102.766 42.5858 103.133C43.4626 103.898 43.0973 104.066 41.3438 103.684C40.8908 103.592 40.8616 103.607 40.9638 103.944C41.2123 104.769 41.3291 104.968 41.6945 105.274C41.9136 105.458 42.0452 105.672 41.9867 105.763C41.9429 105.84 41.4022 105.916 40.8031 105.916C39.751 105.916 39.7072 105.932 39.751 106.253C39.7802 106.497 39.9702 106.666 40.3793 106.834C41.2415 107.17 41.3292 107.262 41.3292 107.797C41.3292 108.654 41.1538 108.776 40.3501 108.531C39.3565 108.241 39.0788 108.241 39.0204 108.562C38.9911 108.73 39.2396 109.112 39.7072 109.587C40.4962 110.382 40.5985 110.657 40.2186 110.978C40.0432 111.131 39.8533 111.131 39.2396 110.978C37.9244 110.657 37.8952 110.672 37.9244 111.269C37.939 111.62 38.0559 111.88 38.2897 112.064C39.2396 112.798 39.4295 112.997 39.4295 113.196C39.4295 113.486 38.6989 113.471 37.7637 113.18C37.3107 113.027 36.9892 112.997 36.9016 113.089C36.6239 113.379 36.9454 113.945 37.603 114.358C38.0413 114.633 38.2605 114.878 38.2605 115.092C38.2605 115.52 37.8075 115.489 37.3838 115.015C36.9746 114.557 36.3609 114.495 36.3609 114.924C36.3609 115.077 36.4632 115.459 36.5801 115.749C36.8723 116.483 36.8723 117.447 36.5947 117.34C36.1271 117.141 35.3234 117.049 34.9727 117.141C34.4174 117.294 34.4905 117.799 35.1188 118.059C35.5426 118.257 35.6303 118.364 35.6303 118.747C35.6303 119.297 35.4403 119.343 34.8266 118.915C34.2275 118.502 34.169 118.517 34.169 119.144C34.169 119.863 34.4905 120.49 34.9727 120.72C35.2942 120.872 35.338 120.949 35.1919 121.132C34.9289 121.454 34.6366 121.423 34.0813 120.98C33.8183 120.765 33.4676 120.597 33.3069 120.597C33.0585 120.597 33 120.689 33 121.102C33 121.377 33.1023 121.974 33.2338 122.417C33.3507 122.861 33.4238 123.273 33.3799 123.319C33.3361 123.365 33.1315 123.319 32.927 123.228C32.4886 123.013 32.4009 123.013 32.1525 123.166C31.9187 123.335 32.2986 124.39 32.737 124.741C33.0585 125.001 32.9854 125.338 32.6201 125.338C32.5032 125.338 32.2109 125.231 31.9771 125.109C31.5826 124.894 31.5388 124.894 31.4073 125.154C31.305 125.353 31.3488 125.613 31.5826 126.087C32.1233 127.188 31.4365 127.739 30.589 126.867C30.3259 126.592 30.0191 126.408 29.9168 126.439C29.8145 126.47 29.7268 126.928 29.683 127.647C29.6245 128.595 29.6684 128.855 29.8729 129.069C30.0629 129.268 30.0775 129.375 29.946 129.513C29.8145 129.65 29.6538 129.62 29.2738 129.406C28.9962 129.238 28.7186 129.146 28.6747 129.192C28.6309 129.253 28.6601 129.543 28.7478 129.849C28.9231 130.553 28.8355 130.797 28.3094 131.088C27.8272 131.348 27.8272 131.333 28.061 132.021C28.2948 132.709 28.061 132.984 27.5349 132.617C27.3304 132.48 27.0673 132.373 26.9358 132.373C26.5851 132.373 26.6582 133.321 27.0673 133.948C27.3158 134.33 27.3742 134.529 27.2573 134.651C26.9651 134.957 26.629 134.835 25.9276 134.192C25.0508 133.382 24.9047 133.672 25.533 135.033C26.3513 136.807 25.9568 137.343 24.8609 135.951C24.5832 135.584 24.291 135.278 24.2179 135.278C24.0133 135.278 24.0718 136.073 24.3056 136.502C24.4955 136.869 24.5978 137.572 24.4517 137.572C24.4225 137.572 24.2325 137.496 24.0279 137.404C23.6334 137.205 23.4727 136.884 23.1512 135.462C22.9612 134.697 22.7567 134.299 22.1722 133.581C21.763 133.091 20.6525 131.562 19.7026 130.201L17.993 127.708L18.3291 126.668C18.8843 124.956 19.4835 124.023 20.6378 123.059C22.1137 121.836 22.7128 121.163 22.9174 120.49C23.2243 119.45 23.7065 118.839 24.3494 118.64C25.08 118.41 25.8837 117.478 26.9943 115.597C28.8208 112.492 30.0483 110.718 32.3571 107.828C35.4403 103.974 36.0833 103.057 38.1144 99.6922C40.5985 95.5785 41.4461 94.2786 42.1328 93.5293C42.4835 93.147 43.3018 91.8777 43.974 90.7002C45.2015 88.5133 46.7358 86.0359 47.8463 84.4608C48.1824 83.9867 48.8838 82.748 49.3806 81.7081C50.4181 79.5672 52.8876 74.9029 55.7955 69.5964C59.4487 62.9135 61.5529 58.7998 63.2771 54.9155C64.3877 52.4534 66.1704 47.9115 66.1704 47.6056C66.1558 47.4986 65.8197 47.8197 65.396 48.2938C64.6215 49.1808 64.5192 49.3643 62.941 52.7592C62.2104 54.3649 61.8597 54.9308 61.1145 55.726C60.3546 56.5518 60.1354 56.9188 59.814 57.8822C59.2441 59.5797 56.8769 64.5498 55.5471 66.8437C54.9042 67.9295 53.3699 70.5445 52.1424 72.6549C50.9003 74.75 49.5852 77.2274 49.2053 78.1297C48.4601 79.9036 47.934 80.76 47.481 80.9129C47.3203 80.9588 47.1742 81.2035 47.1157 81.4634C46.9988 82.1363 46.3705 83.375 45.6983 84.3232C44.9969 85.2866 44.427 86.4335 44.2955 87.137C44.237 87.4428 43.901 87.9934 43.4041 88.5592C42.9511 89.0639 42.1036 90.272 41.5045 91.2354C39.2688 94.8445 38.7866 95.5479 37.9244 96.4502C37.223 97.1995 36.9016 97.7042 36.3609 98.9276C34.9289 102.231 33.0877 105.014 30.5013 107.813C29.0693 109.388 28.2071 110.504 26.5851 112.951C23.7503 117.248 22.1137 119.435 20.2871 121.347C18.066 123.686 16.4441 124.711 14.6029 124.971L13.8138 125.078L13.8869 124.39C13.9599 123.732 13.9453 123.686 13.2877 123.12C12.9078 122.784 12.3525 122.203 12.0457 121.821C11.4173 121.041 10.3799 118.869 9.91226 117.355L9.59078 116.346L10.2776 115.214C11.6804 112.966 14.2522 110.106 17.9491 106.757C20.4333 104.494 23.0635 101.787 23.0635 101.481C23.0635 101.344 23.1658 101.099 23.2827 100.931C23.3996 100.778 23.5019 100.426 23.5019 100.182C23.5019 99.8146 23.6772 99.524 24.2471 98.9582C25.5038 97.6736 28.4263 94.1869 30.7935 91.1436C34.8412 85.9595 37.1646 83.0844 38.8158 81.2493C39.8825 80.0412 40.8177 78.8025 41.563 77.5791C43.5064 74.3983 46.3559 69.9634 50.0236 64.3969C56.2777 54.9155 59.2879 50.0677 61.962 45.1894C63.7155 42.0085 66.2289 36.962 66.1266 36.8396C65.9658 36.6714 65.2937 36.962 64.8114 37.4054C64.2708 37.8948 64.0078 38.4454 63.5255 40.1123C63.1018 41.6109 62.8534 41.9779 61.5382 43.0943C59.6094 44.7306 59.434 44.9447 59.4633 45.8776C59.4925 46.6116 59.4194 46.7798 58.7619 47.8197C58.3527 48.4467 57.6805 49.6548 57.2568 50.5112C56.3654 52.3769 55.4741 53.478 54.5535 53.8756L53.8959 54.1508V55.1755V56.2001L53.2676 56.5977C52.9023 56.8118 52.4054 56.98 52.0986 56.98C51.4995 56.98 51.441 57.1329 51.7771 57.7446C51.894 57.9587 51.9817 58.3104 51.9963 58.5245C51.9963 58.8763 51.9232 58.9527 51.4995 59.0292C50.9003 59.1515 50.6958 59.3809 50.0528 60.742C49.5268 61.8277 48.9569 62.4853 48.5331 62.4853C48.387 62.4853 48.3432 62.5771 48.4162 62.7453C48.4747 62.8982 48.5477 63.2499 48.5916 63.5099C48.6646 63.984 48.6354 64.0299 48.0071 64.3051C47.218 64.6569 46.9842 65.0545 47.0573 65.865L47.1157 66.4614H46.3559H45.596L45.6691 67.1037C45.7714 68.1283 45.3476 68.6941 44.2517 69.0153L43.3749 69.2599V70.2234C43.3749 71.2786 43.1265 71.6303 42.6151 71.3397C42.3812 71.2174 42.3666 71.248 42.4543 71.6609C42.5274 72.0891 42.4543 72.2114 41.636 73.0066C40.7447 73.8783 40.7447 73.8783 40.7447 74.7194V75.5605L39.9702 75.9428C39.2688 76.2945 39.1957 76.371 39.0934 77.0133C38.9181 77.9156 38.8158 78.0379 38.0413 78.1602C37.3107 78.2673 37.0915 78.5425 37.0915 79.3378C37.0915 80.1483 36.9016 80.3318 36.3317 80.1024C35.9079 79.9342 35.8202 79.9495 35.6595 80.1789C35.5572 80.3318 35.4988 80.5612 35.5426 80.6835C35.5718 80.8059 35.6741 81.127 35.7472 81.387L35.8933 81.8763L34.5928 82.4422C33.8768 82.748 33.263 83.0692 33.2046 83.1456C33.1608 83.2221 33.2777 83.5891 33.453 83.9714C33.8622 84.8125 33.7306 85.0266 32.9708 84.7819C32.021 84.4761 31.5826 84.9502 32.1087 85.7148C32.284 85.9595 32.4155 86.2959 32.4155 86.4488C32.4155 87.1982 31.5095 87.3511 31.0127 86.6782C30.8374 86.4488 30.6474 86.3112 30.6036 86.3571C30.5451 86.4029 30.4428 86.877 30.3552 87.397C30.1798 88.4369 30.0045 88.5286 29.2008 88.1004C28.8355 87.9016 28.7624 87.9016 28.7624 88.0698C28.7624 88.4369 29.2008 89.6144 29.3761 89.7214C29.5076 89.8132 29.5076 89.8897 29.3615 90.0732C29.2008 90.272 29.1277 90.272 28.7332 90.012C28.2071 89.6756 27.8856 89.7673 27.8856 90.2414C27.8856 90.4402 27.6518 90.899 27.3596 91.266C26.7751 91.9695 26.4244 92.7188 26.4244 93.2081C26.4244 93.5752 25.9568 93.7587 25.5623 93.5446C25.4015 93.4528 25.1093 93.3764 24.9047 93.3764C24.6124 93.3764 24.5248 93.4528 24.5248 93.7128C24.5394 93.9116 24.6271 94.2328 24.744 94.4469C25.1969 95.2727 24.8024 95.9149 24.101 95.5326C23.9403 95.4409 23.6334 95.3644 23.4288 95.3644C23.1074 95.3644 23.0635 95.4256 23.122 95.6703C23.1658 95.8385 23.2535 96.1137 23.2973 96.2973C23.5457 97.2148 22.8589 97.7195 22.3913 96.9701C22.0991 96.5114 21.953 96.4961 21.7484 96.909C21.6169 97.1384 21.6315 97.383 21.8068 97.9183C21.9384 98.3159 22.0406 98.79 22.0406 98.9888C22.0406 99.3252 21.9968 99.3405 21.0324 99.3405C20.4625 99.3405 19.9657 99.417 19.9218 99.4934C19.8634 99.5852 19.9949 99.8604 20.2141 100.136C20.9301 101.023 20.3602 101.741 19.5565 100.946C19.3227 100.717 19.0305 100.564 18.8697 100.594C18.6505 100.64 18.6067 100.793 18.6213 101.527C18.6359 102.475 18.4898 102.628 18.0222 102.093C17.7153 101.726 17.2477 101.696 17.1308 102.017C17.0724 102.139 17.1454 102.521 17.277 102.858C17.4085 103.194 17.5108 103.515 17.5108 103.561C17.5108 103.653 17.1308 103.592 16.2979 103.378C15.918 103.286 15.9034 103.301 15.9034 103.898C15.9034 104.234 16.0057 104.616 16.1226 104.739C16.3125 104.938 16.3125 104.999 16.108 105.167C15.918 105.32 15.8011 105.32 15.4212 105.152C15.1581 105.045 14.7636 104.953 14.5152 104.938C14.1353 104.922 14.0768 104.968 14.1353 105.305C14.1499 105.519 14.296 105.855 14.4421 106.085C14.5883 106.299 14.7636 106.666 14.8221 106.895L14.9097 107.308L14.3545 107.048C14.033 106.91 13.6092 106.757 13.3754 106.712C12.9955 106.65 12.9809 106.666 12.9809 107.354C12.9809 107.935 12.937 108.057 12.7179 108.057C12.5717 108.057 12.3525 107.889 12.2503 107.675C12.0311 107.247 11.7096 107.231 11.4612 107.629C11.3443 107.828 11.3735 108.073 11.5635 108.623C12.0165 109.938 11.7388 110.55 11.1105 109.632C10.9205 109.357 10.7598 109.265 10.5698 109.327C10.3652 109.418 10.336 109.541 10.4091 110.015C10.6137 111.177 10.5844 111.483 10.3068 111.544C9.67846 111.682 9.12318 110.718 8.904 109.112C8.77248 108.149 8.52407 107.491 7.22356 104.693C6.37603 102.888 5.44083 100.946 5.13397 100.38L4.57869 99.3558L5.30932 98.5759C6.27374 97.5207 7.36968 96.7407 9.89765 95.2268C16.0641 91.5413 26.2052 83.0692 35.9956 73.4348C41.8552 67.6542 45.1869 64.1369 45.6106 63.2347C46.1951 62.0265 47.2618 60.589 48.5623 59.2739C49.1907 58.6469 50.0236 57.6223 50.4327 56.98C50.8419 56.353 51.9963 54.732 53.0192 53.3862C54.0274 52.0405 55.1672 50.4959 55.5325 49.9454C56.1608 48.9972 57.549 46.5351 57.549 46.3516C57.549 46.3057 57.1983 46.4587 56.7892 46.6728C55.6932 47.2539 54.0566 49.0431 52.3324 51.5511C51.5287 52.7286 49.4391 55.4507 47.6856 57.5917C45.9321 59.7327 43.6525 62.6077 42.6004 63.9687C41.1392 65.8956 40.5547 66.5226 40.0871 66.7672C39.7218 66.9508 39.0204 67.593 38.4213 68.2812C37.8514 68.9388 37.1354 69.627 36.8139 69.7799C36.3901 70.0093 36.0248 70.4069 35.4841 71.248C34.6512 72.5631 33.5115 73.7101 32.1087 74.6582C31.5826 75.01 31.0566 75.4229 30.9397 75.5758C30.8228 75.7134 29.1862 77.1815 27.3011 78.8331C25.4161 80.4694 23.2389 82.488 22.4644 83.2985C21.5146 84.3079 20.594 85.0878 19.615 85.7301C17.803 86.9229 16.5609 87.8557 12.1772 91.3119C7.2674 95.1962 4.57869 97.0466 3.86268 97.0466C3.57043 97.0466 3.40969 96.9243 3.21973 96.5572C3.08822 96.2973 2.82519 95.8996 2.63523 95.7008L2.29914 95.3338L2.44527 91.4036C2.60601 87.5805 2.83981 85.2713 3.23434 83.895C3.42431 83.2068 3.43892 83.2068 5.30932 82.2128C6.36142 81.6622 8.18798 80.7447 9.3716 80.1636C11.9288 78.9096 13.5362 77.9003 14.6175 76.8757C15.0997 76.4169 16.1226 75.7593 17.2916 75.1323C20.7401 73.2972 24.3202 70.8963 28.6163 67.5472C31.0712 65.6356 40.3501 57.8975 42.7173 55.7719C44.8215 53.9062 48.0363 50.5724 49.4683 48.7984C50.6227 47.3762 53.0922 43.6907 52.9753 43.5684C52.873 43.4613 51.704 43.966 51.251 44.3177C51.0026 44.5165 50.4474 45.2353 50.009 45.9234C49.1761 47.208 47.2472 49.1502 40.5255 55.3743C36.4924 59.1057 36.2002 59.3656 35.338 59.7327C34.0667 60.2985 32.7078 61.2925 31.7141 62.3936C30.9835 63.1735 30.6912 63.4029 30.3698 63.4029C30.136 63.4029 29.9022 63.3264 29.8437 63.2347C29.7853 63.1276 29.683 63.2041 29.5807 63.4182C29.493 63.6017 29.0693 63.984 28.6309 64.244C27.6957 64.8251 27.4473 65.1309 27.4473 65.7426C27.4473 66.1861 27.4327 66.1861 26.892 66.125C26.3952 66.0485 26.3221 66.0791 26.1614 66.4614C26.0445 66.7214 25.6645 67.0578 25.1385 67.3484C24.2179 67.8683 23.8818 68.1895 23.7357 68.7094C23.5896 69.1835 23.0635 69.1682 22.5082 68.6788C21.9822 68.22 21.7484 68.1895 21.8507 68.6177C21.953 69 21.6461 69.6423 21.31 69.7493C20.8424 69.9022 20.2871 70.5598 20.2871 70.9727C20.2871 71.4162 20.2141 71.4315 19.4981 71.1256C19.1035 70.9421 18.8843 70.9268 18.6798 71.0492C18.3437 71.248 18.3291 71.3091 18.6067 71.8138C18.8843 72.3185 18.8843 72.869 18.5921 72.9913C18.4606 73.0372 18.1391 72.9607 17.8615 72.8231C17.5838 72.6855 17.1162 72.5784 16.8386 72.5784H16.3125L16.4148 73.3431C16.4879 73.863 16.4587 74.1842 16.3418 74.3371C16.0495 74.7041 15.6404 74.5971 15.3919 74.1077C14.9682 73.2513 14.3398 73.6489 14.1937 74.8417C14.1207 75.5299 14.0622 75.6522 13.7407 75.744C13.4485 75.8205 13.2877 75.744 13.0393 75.4382C12.8494 75.2088 12.601 75.0253 12.4841 75.0253C12.2649 75.0253 12.0018 75.7287 11.9288 76.5239L11.8849 76.891L11.4904 76.5698C11.0082 76.1569 10.8182 76.1569 10.7598 76.5851C10.7159 76.9062 10.5114 77.0745 9.54695 77.5027C9.19625 77.6709 9.09396 77.8238 9.03551 78.3132C8.96245 78.8943 8.93322 78.9249 8.46562 78.8943C8.12953 78.879 7.82267 78.7108 7.44275 78.3285C7.1505 78.0226 6.85825 77.7779 6.7998 77.7779C6.74135 77.7779 6.69751 78.1908 6.69751 78.7108V79.6436L6.27374 79.5366C5.68924 79.3989 5.29471 79.6589 4.94401 80.3777C4.52024 81.2493 4.16954 81.4023 3.78962 80.8976C3.35124 80.3165 3.39508 79.2766 3.92113 77.5944C4.16954 76.8145 4.40334 75.7287 4.46179 75.1782L4.54947 74.1842L6.39064 73.5113C10.1022 72.1808 13.3608 70.4069 17.6861 67.3637C20.5063 65.3909 21.5438 64.5498 23.2973 62.8065C25.2262 60.8796 26.2198 60.222 30.1506 58.3104C32.8977 56.9494 34.1982 56.2306 35.0458 55.5731C35.8202 54.9614 36.8577 53.8144 37.3107 53.0804C37.7783 52.3004 38.319 51.0312 38.2167 50.9241C38.1875 50.8935 37.8075 51.1382 37.3692 51.4899C35.981 52.5757 33.2923 54.3038 28.6601 57.0717C22.1429 60.9561 19.0743 63.1582 16.7509 65.5897C16.0641 66.3085 15.6257 66.6296 15.0266 66.8437C14.5736 67.0119 13.9307 67.4095 13.5654 67.7613C13.2001 68.0977 12.3818 68.7706 11.7388 69.2446C11.0959 69.7187 10.3799 70.3151 10.1461 70.5751C9.88303 70.8657 9.56156 71.0492 9.34237 71.0492C8.64097 71.0492 6.9167 71.508 6.22991 71.8597L5.52851 72.2267L5.17781 71.6762C4.34489 70.3763 4.33028 69.0611 5.10474 67.5319C5.35316 67.0272 6.24452 65.7274 7.07743 64.6569C8.01263 63.4335 8.7871 62.2406 9.1378 61.476C9.6054 60.4667 9.82458 60.1608 10.5552 59.595C11.0374 59.2127 11.7242 58.4634 12.0895 57.9281C15.202 53.3556 16.6486 51.597 18.3144 50.4042C20.1849 49.0584 22.5229 47.9421 26.0737 46.7186L28.3971 45.9234L33.1461 45.8164C37.1938 45.7093 38.0413 45.6482 38.9181 45.4035C42.6735 44.3024 46.8819 42.0238 49.9798 39.4241C51.251 38.3383 51.1488 38.583 52.3616 33.6588C53.8082 27.7864 54.5096 25.5384 55.5763 23.3363C55.9124 22.6481 55.9417 22.4187 55.9417 20.5224C55.9417 19.039 55.8101 17.5251 55.4741 15.0477C55.1526 12.6161 55.0065 11.0257 55.0065 9.49645C54.9918 7.50842 55.0211 7.27903 55.4156 6.16267C55.7225 5.29099 56.0293 4.74046 56.5554 4.12876L57.286 3.30295L57.7828 3.68527C58.5135 4.26639 59.7263 4.81692 60.8661 5.0616C61.509 5.21452 63.1748 5.32157 65.5859 5.36745C69.5313 5.45921 70.6857 5.58155 72.0593 6.07091C72.8483 6.34618 72.9798 6.36147 73.6082 6.14738C75.1133 5.65801 76.7206 5.39803 80.6368 5.0616C83.7639 4.78633 83.8808 4.75576 84.6552 4.29698C84.9767 4.09817 85.7658 3.83819 86.4087 3.70056C89.8281 2.9971 92.7506 2.89005 99.6331 3.22649C105.522 3.50175 106.428 3.48647 110.154 2.92065C113.062 2.47716 115.298 2.49244 117.592 2.9971ZM123.758 36.6102C124.343 37.0078 125.497 38.2313 125.497 38.4606C125.497 38.5218 125.351 38.6289 125.176 38.7053C124.343 39.0876 124.781 39.8676 126.681 41.3204C128.595 42.7884 129.209 43.5684 129.516 44.9294C129.822 46.2446 129.91 46.4434 130.407 46.9786L130.787 47.3609L131.181 46.9786C131.62 46.5351 131.854 46.474 131.971 46.7951C132.014 46.9174 132.497 47.2539 133.052 47.5597C134.382 48.2938 135.931 49.5325 138.575 51.9793C141.41 54.6249 142.126 55.206 147.197 59.1209C149.535 60.9102 152.91 63.617 154.693 65.1156C159.369 69.0305 161.006 70.1316 168.896 74.75C173.631 77.5179 175.72 78.8178 177.328 79.9495C178.292 80.6223 178.453 80.6835 179.257 80.6835C180.075 80.6835 180.206 80.7294 180.981 81.3717C181.448 81.7387 182.252 82.381 182.778 82.7786C184.634 84.2161 184.912 85.6077 184.166 89.7979C183.947 91.0519 183.743 92.1683 183.713 92.2906C183.67 92.4435 183.48 92.4741 182.91 92.3976C181.741 92.2294 181.025 91.893 177.357 89.7061C171.468 86.2041 168.765 84.2926 166.368 81.9222C165.375 80.9435 165.009 80.6835 164.673 80.6835C164.425 80.6835 163.928 80.5153 163.548 80.3012C163.168 80.0871 162.774 79.9189 162.671 79.9189C162.569 79.9189 162.452 79.7813 162.394 79.6283C162.35 79.4601 162.014 79.0778 161.663 78.7719C161.298 78.4661 161.006 78.0838 161.006 77.9308C161.006 77.732 160.684 77.4721 159.953 77.0592C158.536 76.2792 157.016 75.0864 155.146 73.2513C152.72 70.8657 151.595 69.8564 149.228 67.9448C145.443 64.9016 144.377 63.9381 140.621 60.222C135.112 54.7626 132.321 51.8111 130.188 49.1043C127.28 45.4494 126.447 44.226 125.556 42.3755C125.015 41.2745 124.489 40.4028 123.977 39.8523C122.765 38.5218 121.742 36.8243 121.903 36.3961C122.034 36.0138 123.028 36.1362 123.758 36.6102ZM127.543 39.5464C127.85 39.7146 128.624 40.311 129.253 40.8616C129.881 41.4274 130.655 42.0697 130.962 42.2838L131.547 42.6814L130.933 42.7273C130.1 42.7885 129.033 42.1767 128.069 41.0604C127.338 40.204 126.71 39.2406 126.885 39.2406C126.929 39.2406 127.221 39.3782 127.543 39.5464Z" fill="white"/>
</g>
</svg>
